<svg width="494" height="398" viewBox="0 0 494 398" fill="none" xmlns="http://www.w3.org/2000/svg">
<path d="M398.714 150.875C398.714 77.1512 338.982 17.3859 265.299 17.3859C191.616 17.3859 131.884 77.1512 131.884 150.875V264.029C131.884 337.753 191.616 397.519 265.299 397.519C338.982 397.519 398.714 337.753 398.714 264.029V150.875Z" fill="url(#paint0_linear)"/>
<path d="M153.402 117.864C153.402 117.864 163.559 107.36 165.339 94.7979C167.118 82.2361 178.485 79.2557 186.255 81.6443C194.024 84.0329 201.208 105.791 220.36 105.677C239.513 105.563 271.758 90.0152 272.952 85.8298C274.145 81.6443 275.941 73.8869 289.088 72.0791C302.234 70.2714 302.831 57.7259 321.957 57.7259C341.082 57.7259 374.749 60.9342 377.738 62.1285C380.728 63.3228 394.851 65.3097 397.813 81.8778C397.813 81.8778 400.217 88.8481 396.034 108.565C391.85 128.281 421.133 140.843 428.306 140.843C435.478 140.843 456.394 185.092 433.086 222.761C409.777 260.43 412.766 274.778 388.264 259.833C363.762 244.888 366.154 260.43 363.762 244.883C361.369 229.335 349.421 237.706 345.857 229.335C342.292 220.964 354.82 204.222 346.454 200.634C338.087 197.046 317.155 203.625 312.988 182.101C308.821 160.576 283.103 186.286 295.083 206.019C307.063 225.752 281.937 210.802 281.937 222.761C281.937 234.72 267.597 244.285 274.764 253.253C281.931 262.222 300.465 312.452 243.094 311.253C185.723 310.053 217.989 321.42 206.042 322.615C194.095 323.809 187.464 307.664 168.339 307.664C149.213 307.664 83.4811 304.082 85.2715 275.38C87.062 246.679 104.305 252.037 104.05 226.946C103.795 201.855 74.865 172.829 118.612 146.37C162.36 119.911 153.402 117.864 153.402 117.864Z" fill="#FFB4B4"/>
<path d="M147.743 51.4287H55.2403V267.58H147.743V51.4287Z" fill="url(#paint1_linear)" fill-opacity="0.4"/>
<path d="M104.05 90.0858C112.093 90.0858 118.612 83.5625 118.612 75.5155C118.612 67.4685 112.093 60.9451 104.05 60.9451C96.0072 60.9451 89.4873 67.4685 89.4873 75.5155C89.4873 83.5625 96.0072 90.0858 104.05 90.0858Z" fill="url(#paint2_linear)"/>
<path d="M113.702 105.677H66.4823C65.0979 105.677 63.9757 106.8 63.9757 108.185V108.95C63.9757 110.335 65.0979 111.458 66.4823 111.458H113.702C115.087 111.458 116.209 110.335 116.209 108.95V108.185C116.209 106.8 115.087 105.677 113.702 105.677Z" fill="url(#paint3_linear)"/>
<path d="M138.801 105.677H130.923C129.539 105.677 128.417 106.8 128.417 108.185V108.95C128.417 110.335 129.539 111.458 130.923 111.458H138.801C140.186 111.458 141.308 110.335 141.308 108.95V108.185C141.308 106.8 140.186 105.677 138.801 105.677Z" fill="url(#paint4_linear)"/>
<path d="M97.6095 117.864H66.4823C65.0979 117.864 63.9757 118.987 63.9757 120.372V121.137C63.9757 122.523 65.0979 123.645 66.4823 123.645H97.6095C98.9939 123.645 100.116 122.523 100.116 121.137V120.372C100.116 118.987 98.9939 117.864 97.6095 117.864Z" fill="url(#paint5_linear)"/>
<path d="M138.796 117.864H137.364C135.979 117.864 134.857 118.987 134.857 120.372V121.137C134.857 122.523 135.979 123.645 137.364 123.645H138.796C140.18 123.645 141.303 122.523 141.303 121.137V120.372C141.303 118.987 140.18 117.864 138.796 117.864Z" fill="url(#paint6_linear)"/>
<path d="M119.622 131.408H66.9327C65.5483 131.408 64.426 132.531 64.426 133.916V134.682C64.426 136.067 65.5483 137.19 66.9327 137.19H119.622C121.006 137.19 122.128 136.067 122.128 134.682V133.916C122.128 132.531 121.006 131.408 119.622 131.408Z" fill="url(#paint7_linear)"/>
<path d="M139.246 131.408H135.014C133.63 131.408 132.508 132.531 132.508 133.916V134.682C132.508 136.067 133.63 137.19 135.014 137.19H139.246C140.631 137.19 141.753 136.067 141.753 134.682V133.916C141.753 132.531 140.631 131.408 139.246 131.408Z" fill="url(#paint8_linear)"/>
<path d="M110.311 143.482H66.9327C65.5483 143.482 64.426 144.605 64.426 145.99V146.755C64.426 148.14 65.5483 149.263 66.9327 149.263H110.311C111.695 149.263 112.818 148.14 112.818 146.755V145.99C112.818 144.605 111.695 143.482 110.311 143.482Z" fill="url(#paint9_linear)"/>
<path d="M139.252 143.482H131.374C129.989 143.482 128.867 144.605 128.867 145.99V146.755C128.867 148.14 129.989 149.263 131.374 149.263H139.252C140.636 149.263 141.758 148.14 141.758 146.755V145.99C141.758 144.605 140.636 143.482 139.252 143.482Z" fill="url(#paint10_linear)"/>
<path d="M90.7732 156.119H66.9327C65.5483 156.119 64.426 157.242 64.426 158.627V159.393C64.426 160.778 65.5483 161.901 66.9327 161.901H90.7732C92.1576 161.901 93.2798 160.778 93.2798 159.393V158.627C93.2798 157.242 92.1576 156.119 90.7732 156.119Z" fill="url(#paint11_linear)"/>
<path d="M139.252 156.119H126.474C125.09 156.119 123.968 157.242 123.968 158.627V159.393C123.968 160.778 125.09 161.901 126.474 161.901H139.252C140.636 161.901 141.758 160.778 141.758 159.393V158.627C141.758 157.242 140.636 156.119 139.252 156.119Z" fill="url(#paint12_linear)"/>
<path d="M109.161 168.307H66.9327C65.5483 168.307 64.426 169.43 64.426 170.815V171.58C64.426 172.965 65.5483 174.088 66.9327 174.088H109.161C110.545 174.088 111.668 172.965 111.668 171.58V170.815C111.668 169.43 110.545 168.307 109.161 168.307Z" fill="url(#paint13_linear)"/>
<path d="M139.252 168.307H131.374C129.989 168.307 128.867 169.43 128.867 170.815V171.58C128.867 172.965 129.989 174.088 131.374 174.088H139.252C140.636 174.088 141.758 172.965 141.758 171.58V170.815C141.758 169.43 140.636 168.307 139.252 168.307Z" fill="url(#paint14_linear)"/>
<path d="M303.119 260.007C301.434 256.882 300.775 253.306 301.235 249.785C301.696 246.265 303.253 242.979 305.685 240.393C309.119 236.734 311.914 231.984 311.686 226.333C311.143 212.219 324.664 207.143 326.921 213.353C329.178 219.564 328.05 241.039 337.073 242.706C346.096 244.372 359.643 254.649 348.922 267.58C338.201 280.511 333.692 260.202 338.201 280.527C342.71 300.852 316.764 317.583 310.53 302.154C304.296 286.726 285.17 292.188 298.686 281.656C307.714 274.615 306.559 266.434 303.119 260.007Z" fill="#FFB4B4"/>
<path d="M364.445 94.8087L365.932 93.2344" stroke="#93291E" stroke-width="0.34182" stroke-miterlimit="10" stroke-linecap="round"/>
<path d="M368.298 90.7319C370.5 88.3921 373.436 85.2598 376.534 81.9321" stroke="#93291E" stroke-width="0.34182" stroke-miterlimit="10" stroke-linecap="round" stroke-dasharray="2.17 2.17"/>
<path d="M377.706 80.6672L379.181 79.0712" stroke="white" stroke-width="0.34182" stroke-miterlimit="10" stroke-linecap="round"/>
<path d="M379.181 81.8832C381.483 81.8832 383.348 80.0166 383.348 77.714C383.348 75.4115 381.483 73.5449 379.181 73.5449C376.88 73.5449 375.015 75.4115 375.015 77.714C375.015 80.0166 376.88 81.8832 379.181 81.8832Z" fill="url(#paint15_linear)"/>
<path d="M359.654 103.456C361.956 103.456 363.821 101.59 363.821 99.2873C363.821 96.9848 361.956 95.1182 359.654 95.1182C357.353 95.1182 355.487 96.9848 355.487 99.2873C355.487 101.59 357.353 103.456 359.654 103.456Z" fill="url(#paint16_linear)"/>
<path d="M154.71 205.737C154.71 205.737 154.921 205.015 155.437 203.696L154.71 205.737Z" fill="url(#paint17_linear)"/>
<path d="M157.195 199.7C165.501 182.361 197.969 132.749 301.746 118.434" stroke="#93291E" stroke-width="0.34182" stroke-miterlimit="10" stroke-linecap="round" stroke-dasharray="2.74 2.74"/>
<path d="M303.916 118.141L306.086 117.864" stroke="#93291E" stroke-width="0.34182" stroke-miterlimit="10" stroke-linecap="round"/>
<path d="M150.51 210.205C150.51 210.205 150.906 210.872 151.633 212.056" stroke="white" stroke-width="0.34182" stroke-miterlimit="10" stroke-linecap="round"/>
<path d="M154.053 215.921C160.407 225.931 174.253 246.5 186.808 256.788" stroke="#93291E" stroke-width="0.34182" stroke-miterlimit="10" stroke-linecap="round" stroke-dasharray="2.88 2.88"/>
<path d="M188.609 258.21C189.201 258.655 189.792 259.073 190.378 259.458" stroke="white" stroke-width="0.34182" stroke-miterlimit="10" stroke-linecap="round"/>
<path d="M150.51 228.217C160.797 228.217 169.136 219.873 169.136 209.58C169.136 199.288 160.797 190.944 150.51 190.944C140.223 190.944 131.884 199.288 131.884 209.58C131.884 219.873 140.223 228.217 150.51 228.217Z" stroke="url(#paint18_linear)" stroke-width="1.36728" stroke-miterlimit="10"/>
<path d="M150.51 217.598C154.591 217.598 157.9 214.288 157.9 210.205C157.9 206.121 154.591 202.811 150.51 202.811C146.429 202.811 143.12 206.121 143.12 210.205C143.12 214.288 146.429 217.598 150.51 217.598Z" fill="url(#paint19_linear)"/>
<path d="M339.449 134.296C349.736 134.296 358.075 125.953 358.075 115.66C358.075 105.367 349.736 97.0236 339.449 97.0236C329.162 97.0236 320.823 105.367 320.823 115.66C320.823 125.953 329.162 134.296 339.449 134.296Z" stroke="url(#paint20_linear)" stroke-width="1.36728" stroke-miterlimit="10"/>
<path d="M339.449 123.683C343.53 123.683 346.839 120.373 346.839 116.29C346.839 112.206 343.53 108.896 339.449 108.896C335.368 108.896 332.059 112.206 332.059 116.29C332.059 120.373 335.368 123.683 339.449 123.683Z" fill="url(#paint21_linear)"/>
<path d="M312.82 121.409C315.121 121.409 316.987 119.542 316.987 117.24C316.987 114.937 315.121 113.071 312.82 113.071C310.518 113.071 308.653 114.937 308.653 117.24C308.653 119.542 310.518 121.409 312.82 121.409Z" fill="url(#paint22_linear)"/>
<path d="M190.378 263.633C192.679 263.633 194.545 261.766 194.545 259.464C194.545 257.161 192.679 255.295 190.378 255.295C188.077 255.295 186.211 257.161 186.211 259.464C186.211 261.766 188.077 263.633 190.378 263.633Z" fill="url(#paint23_linear)"/>
<path d="M245.78 259.464H202.244C201.552 259.464 200.991 260.025 200.991 260.718V261.098C200.991 261.79 201.552 262.352 202.244 262.352H245.78C246.472 262.352 247.033 261.79 247.033 261.098V260.718C247.033 260.025 246.472 259.464 245.78 259.464Z" fill="url(#paint24_linear)"/>
<path d="M245.78 267.58H202.244C201.552 267.58 200.991 268.141 200.991 268.834V269.214C200.991 269.906 201.552 270.468 202.244 270.468H245.78C246.472 270.468 247.033 269.906 247.033 269.214V268.834C247.033 268.141 246.472 267.58 245.78 267.58Z" fill="url(#paint25_linear)"/>
<path d="M245.78 277.807H202.244C201.552 277.807 200.991 278.369 200.991 279.061V279.441C200.991 280.134 201.552 280.695 202.244 280.695H245.78C246.472 280.695 247.033 280.134 247.033 279.441V279.061C247.033 278.369 246.472 277.807 245.78 277.807Z" fill="url(#paint26_linear)"/>
<path d="M229.221 285.955H202.244C201.552 285.955 200.991 286.517 200.991 287.209V287.589C200.991 288.282 201.552 288.843 202.244 288.843H229.221C229.913 288.843 230.474 288.282 230.474 287.589V287.209C230.474 286.517 229.913 285.955 229.221 285.955Z" fill="url(#paint27_linear)"/>
<path d="M428.761 83.6909H385.226C384.533 83.6909 383.972 84.2524 383.972 84.945V85.325C383.972 86.0175 384.533 86.579 385.226 86.579H428.761C429.454 86.579 430.015 86.0175 430.015 85.325V84.945C430.015 84.2524 429.454 83.6909 428.761 83.6909Z" fill="url(#paint28_linear)" fill-opacity="0.4"/>
<path d="M428.761 91.8067H385.226C384.533 91.8067 383.972 92.3681 383.972 93.0607V93.4407C383.972 94.1333 384.533 94.6947 385.226 94.6947H428.761C429.454 94.6947 430.015 94.1333 430.015 93.4407V93.0607C430.015 92.3681 429.454 91.8067 428.761 91.8067Z" fill="url(#paint29_linear)" fill-opacity="0.4"/>
<path d="M428.761 102.034H385.226C384.533 102.034 383.972 102.596 383.972 103.288V103.668C383.972 104.361 384.533 104.922 385.226 104.922H428.761C429.454 104.922 430.015 104.361 430.015 103.668V103.288C430.015 102.596 429.454 102.034 428.761 102.034Z" fill="url(#paint30_linear)" fill-opacity="0.4"/>
<path d="M412.202 110.183H385.226C384.533 110.183 383.972 110.744 383.972 111.437V111.817C383.972 112.509 384.533 113.071 385.226 113.071H412.202C412.894 113.071 413.456 112.509 413.456 111.817V111.437C413.456 110.744 412.894 110.183 412.202 110.183Z" fill="url(#paint31_linear)" fill-opacity="0.4"/>
<path d="M194.545 259.458C194.545 259.458 195.299 259.583 196.715 259.757" stroke="#93291E" stroke-width="0.34182" stroke-miterlimit="10"/>
<path d="M200.931 260.218C230.772 263.063 354.722 266.635 339.948 127.961" stroke="#93291E" stroke-width="0.34182" stroke-miterlimit="10" stroke-dasharray="2.69 2.69"/>
<path d="M339.726 125.833C339.644 125.117 339.558 124.4 339.465 123.662" stroke="#93291E" stroke-width="0.34182" stroke-miterlimit="10"/>
<path d="M427.221 125.383C427.221 125.383 418.404 116.409 426.678 110.058C434.952 103.706 437.171 104.086 437.242 110.416C437.312 116.746 431.122 117.707 434.871 124.378C438.62 131.05 434.084 132.798 431.279 131.349C428.474 129.899 427.221 125.383 427.221 125.383Z" fill="#FFB4B4"/>
<path d="M425.723 127.435C425.723 127.435 426.266 132.32 430.677 134.421C435.088 136.522 442.575 141.478 441.913 145.414C441.251 149.35 432.483 138.357 429.738 139.323C426.993 140.29 420.992 136.69 419.19 132.071C417.389 127.451 417.731 123.776 420.455 123.808C423.178 123.841 425.723 127.435 425.723 127.435Z" fill="#FFB4B4"/>
<path d="M410.314 46.467H479.709C490.853 46.467 497.207 33.4057 490.018 24.8611C485.829 19.8722 478.168 16.1319 464.463 16.6748C464.463 16.6748 445.304 -19.6969 418.463 16.6205C418.463 16.6205 396.381 14.449 394.688 28.5634L394.639 28.9814C394.394 31.1854 394.617 33.4163 395.293 35.528C395.969 37.6398 397.084 39.5848 398.564 41.2356C400.044 42.8864 401.855 44.2058 403.88 45.1073C405.905 46.0089 408.098 46.4722 410.314 46.467Z" fill="#FFB4B4"/>
<path d="M54.562 358.91H123.935C135.079 358.91 141.433 345.849 134.244 337.31C130.05 332.316 122.394 328.581 108.683 329.118C108.683 329.118 89.5307 292.747 62.6843 329.069C62.6843 329.069 40.6072 326.898 38.9144 341.039C38.9144 341.181 38.8818 341.322 38.8655 341.457C38.6249 343.661 38.8519 345.89 39.5318 347.999C40.2116 350.109 41.3289 352.051 42.8106 353.698C44.2923 355.346 46.105 356.661 48.1301 357.56C50.1552 358.458 52.3469 358.918 54.562 358.91Z" fill="#FFB4B4"/>
<g clip-path="url(#clip0)">
<path d="M427.499 368.335C429.85 368.207 432.501 365.518 432.501 365.518L437.759 364.835C437.759 364.835 439.383 369.786 437.63 370.81C435.878 371.835 425.319 372.133 425.319 370.81C425.319 369.487 425.49 368.42 427.499 368.335Z" fill="#4B49BB"/>
<path d="M463.279 368.164C465.331 367.012 466.485 363.384 466.485 363.384L470.888 360.439C470.888 360.439 474.607 364.152 473.453 365.817C472.298 367.481 463.065 372.56 462.467 371.365C461.868 370.17 461.526 369.189 463.279 368.164Z" fill="#4B49BB"/>
<path d="M455.413 227.241C455.413 227.241 450.369 216.572 442.247 222.12C434.125 227.668 433.954 234.966 436.391 238.466C439.255 242.606 438.528 245.977 438.015 247.3C437.887 247.684 437.588 248.026 437.246 248.196L423.524 255.878L418.052 261.042L404.886 244.483C404.886 244.483 402.749 241.496 398.901 241.496C395.054 241.496 393.344 242.776 393.344 242.776C393.344 242.776 392.917 244.483 397.619 245.764L402.321 247.044L414.29 268.383C414.29 268.383 417.838 269.877 421.643 266.719C424.977 263.945 428.098 260.957 430.962 257.714L431.389 307.22L429.936 321.389L430.534 329.754C430.492 330.522 430.834 338.802 430.876 339.57L431.817 352.373L432.971 365.347L437.759 364.75L438.571 355.361L440.452 321.603L440.665 291.088L448.958 310.207L448.659 321.346L455.499 342.515C455.798 343.411 456.14 344.265 456.567 345.075L466.357 363.512L470.973 360.653L465.715 347.337C465.16 346.185 462.424 337.351 462.082 336.113L458.577 319.554L443.358 261.64L451.01 265.524C451.01 265.524 456.61 278.028 457.465 279.309C458.32 280.589 468.537 293.478 468.964 295.185C469.392 296.892 471.016 300.178 473.153 301.032C475.291 301.885 479.138 303.294 473.581 295.185C469.221 288.826 466.442 284.089 465.416 282.381C465.16 281.912 464.903 281.443 464.689 280.93L458.919 266.42L449.728 251.696L448.488 250.8L445.881 248.751C445.539 248.495 445.368 248.068 445.41 247.642C445.71 245.678 446.736 243.886 448.317 242.691C451.31 240.301 457.38 235.777 455.413 227.241Z" fill="url(#paint32_linear)"/>
<path d="M453.618 291.856L458.748 319.597L448.488 321.731L442.076 298.684L440.537 321.688H429.808L428.824 285.881L453.618 291.856Z" fill="url(#paint33_linear)"/>
<path d="M459.132 266.719C459.132 266.719 455.841 254.854 449.215 250.928C448.531 250.544 447.334 249.306 447.248 250.031C447.12 251.312 446.394 254.299 443.401 254.299C438.699 254.299 437.331 250.373 437.331 248.239C437.331 247.599 434.681 247.727 432.372 248.111C430.192 248.452 428.012 249.391 426.559 251.013L422.199 257.116L426.26 261.597L427.542 262.28L428.824 285.924C428.824 285.924 438.272 290.277 446.778 291.472C449.044 291.728 451.352 291.899 453.618 291.899L451.908 267.572L459.132 266.719Z" fill="url(#paint34_linear)"/>
<path d="M452.464 234.753C450.968 232.96 449.343 231.296 447.59 229.759C445.111 227.711 443.829 226.516 443.829 226.516C443.829 226.516 440.452 228.991 439.084 229.461C437.716 229.93 435.664 230.784 435.664 230.784C435.664 230.784 434.51 226.943 437.374 226.473C440.238 226.004 448.83 222.888 450.626 224.254C452.421 225.62 455.456 229.546 455.883 231.424C456.311 233.302 455.242 235.734 454.558 236.204C454.174 236.46 455.242 234.283 454.644 233.857C454.216 233.472 452.464 234.753 452.464 234.753Z" fill="url(#paint35_linear)"/>
<path d="M455.883 231.424L429.081 225.15C429.081 225.15 428.568 223.913 429.551 223.87C430.534 223.827 436.647 225.876 436.647 225.876C436.647 225.876 439.297 218.108 447.932 218.279C447.932 218.279 447.59 217.511 448.061 217.468C448.531 217.426 450.754 218.023 450.925 218.194C451.096 218.364 450.583 218.877 450.839 219.09C451.096 219.303 458.619 222.888 455.883 231.424Z" fill="#4B49BB"/>
<path opacity="0.07" d="M437.16 239.362C437.16 239.362 438.913 241.539 440.323 242.008C441.734 242.477 440.922 242.52 440.323 244.27C440.024 245.209 439.597 246.062 439.041 246.873C439.041 246.873 438.272 240.002 437.16 239.362Z" fill="black"/>
<path opacity="0.07" d="M450.839 219.133C450.839 219.133 449.642 220.285 450.412 223.315C451.181 226.345 451.438 227.284 450.797 228.436C450.155 229.589 450.626 230.229 450.626 230.229L455.883 231.467C455.841 231.424 459.132 223.742 450.839 219.133Z" fill="black"/>
<path opacity="0.07" d="M451.908 267.529C451.908 267.529 450.241 265.14 450.07 262.963C449.899 260.786 450.839 267.273 449.771 271.157C448.702 275.041 449.942 278.412 447.761 279.778C445.581 281.144 447.291 285.796 446.821 287.802C446.522 288.997 445.667 289.978 444.513 290.448C444.513 290.448 444.812 291.515 448.531 291.685C452.25 291.856 453.618 291.856 453.618 291.856L451.908 267.529Z" fill="black"/>
</g>
<g clip-path="url(#clip1)">
<path d="M36.2581 351.638H35.3122L28.8173 351.7C28.8173 351.7 27.4301 358.032 26.7364 360.665C26.6734 360.853 26.5473 361.292 26.4842 361.606C26.3581 362.045 26.3581 362.546 26.3581 362.985C26.4842 365.367 27.4301 367.436 29.574 368.502C31.9702 369.693 33.7989 370.822 36.2581 368.502C38.7174 366.182 39.0957 364.74 38.1498 360.791C37.204 356.841 36.8887 351.763 36.2581 351.638Z" fill="#4B49BB"/>
<path d="M62.3008 359.662C58.0129 358.283 55.1753 352.515 55.1753 352.515L47.8607 352.076C47.8607 352.076 47.4823 357.969 47.2931 360.916C47.0409 364.866 47.7345 366.684 50.3199 366.433C53.7881 366.12 67.8499 367.436 70.0569 365.994C72.8945 364.176 66.2734 360.916 62.3008 359.662Z" fill="#4B49BB"/>
<path d="M63.562 296.593C63.8773 299.54 61.6702 315.088 61.6702 318.034C61.6702 320.981 55.1123 352.515 55.1123 352.515L47.6084 352.264C47.6084 352.264 49.311 305.684 49.1218 303.427C48.9326 301.17 39.5371 274.149 39.5371 274.149C39.5371 274.149 38.8435 281.296 38.8435 283.553C38.8435 285.81 36.3212 351.637 36.3212 351.637H28.8173L18.0976 254.464L17.0887 246.188L57.6346 247.191C57.6346 247.191 63.1836 293.584 63.562 296.593Z" fill="url(#paint36_linear)"/>
<path d="M68.5435 227.318L65.1384 230.201L66.2104 234.715L67.6607 236.721C67.5346 236.91 67.2193 235.718 68.7327 236.596L71.6964 236.408L73.9664 233.461C73.9664 233.461 72.7683 219.857 67.4715 210.39L68.5435 227.318ZM64.3817 209.325L64.0664 207.444L63.2467 207.318L64.3817 209.325ZM35.8167 159.233C37.7084 158.418 45.0231 154.97 46.0951 155.722C47.7346 157.101 48.9326 158.92 49.4371 160.988C49.7524 162.43 50.8874 164.186 51.0766 163.935C51.8963 163.12 51.7072 166.192 51.7072 167.132C51.4549 168.449 50.8874 169.765 49.9416 170.769C49.311 171.27 48.6804 172.963 48.3651 174.279C48.0498 175.721 47.4193 178.605 47.9868 179.796C48.6174 181.238 56.3104 195.093 63.1836 207.381L24.6555 200.485L12.4855 226.064L17.9715 230.452L16.395 235.656L15.3861 235.844C15.3861 235.844 14.5033 237.913 13.5574 236.972C12.8008 236.22 11.6657 236.596 11.2243 236.784C11.0982 236.847 10.909 236.847 10.7829 236.847L9.52177 236.596L8.70203 229.7L20.5568 193.401C20.5568 193.401 34.8078 180.674 35.6275 180.172C36.4473 179.671 36.6995 176.285 35.9428 174.655C35.1231 173.025 34.2403 171.458 33.2314 169.891C32.6008 168.95 31.8441 165.377 31.8441 163.81C31.8441 162.242 32.79 162.807 32.79 162.807C32.79 162.807 33.6728 159.735 35.5645 158.92C36.2581 158.481 46.0951 155.722 46.0951 155.722" fill="url(#paint37_linear)"/>
<path d="M20.6199 185.627C18.7282 186.881 17.0256 188.573 16.395 190.768C15.7645 192.962 5.0447 213.462 4.54024 214.967C4.03578 216.472 2.01794 222.365 3.15298 228.759C4.28801 235.154 9.14343 236.659 9.96318 236.659C10.4046 236.659 9.58483 233.336 9.39566 231.142C9.3326 230.327 10.0262 228.321 10.2154 227.506C10.5307 226.314 11.5396 226.628 11.5396 225.562C11.5396 223.556 16.5842 216.597 18.4759 212.71C20.3676 208.823 23.8989 208.133 24.5294 206.441C25.16 204.748 19.2326 241.298 19.2326 241.298C19.2326 241.298 19.1065 247.693 20.3046 248.32C21.4396 248.884 34.997 254.025 38.1498 255.216C38.4651 255.341 38.8435 255.153 39.0326 254.84L41.0505 249.135C41.0505 249.072 41.1135 249.009 41.1766 249.072C41.2397 249.072 41.2396 249.135 41.2396 249.135L43.1314 255.341C43.1944 255.655 43.5728 255.843 43.8881 255.78L60.5983 252.207C60.5983 252.207 60.346 221.55 60.6613 216.409C60.9136 211.394 60.283 208.572 61.2288 209.952C62.2378 211.456 70.5613 219.669 70.5613 221.989C70.4983 223.305 71.1289 224.496 72.2008 225.249L71.7594 236.533C71.7594 236.533 76.4887 231.33 76.9301 228.383C77.3715 225.437 77.5607 223.869 76.1734 220.923C74.7862 217.976 67.0932 191.206 67.0932 191.206C67.0932 191.206 66.3365 187.946 60.6613 186.254C54.9862 184.561 50.7613 182.053 49.7524 182.116C48.7435 182.179 45.5906 188.072 44.2033 189.764C43.5728 190.517 43.6989 190.893 42.8791 192.021C42.4377 192.586 41.618 192.711 41.0505 192.272C40.9244 192.147 40.7982 192.084 40.7352 191.896C40.2938 191.206 39.9154 190.517 39.5371 189.827C38.9065 188.573 34.0511 181.489 34.0511 181.489C34.0511 181.489 22.5116 184.373 20.6199 185.627Z" fill="url(#paint38_linear)"/>
<path d="M46.0951 155.722C46.0951 155.722 36.3212 158.982 34.5556 160.55C33.4205 161.553 32.7899 162.806 32.7899 162.806C32.7899 162.806 31.8441 162.43 31.8441 163.81C31.8441 163.81 31.4657 162.869 31.1505 162.305C30.8352 161.741 29.6371 158.731 30.7721 156.349C31.9071 153.967 33.2944 152.588 33.8619 152.211C34.4294 151.835 37.7084 149.014 40.9244 149.139C44.1403 149.265 46.2212 151.459 46.7887 151.961C47.4193 152.462 48.5543 153.403 49.311 153.591C50.0677 153.841 51.9594 156.349 52.0855 158.23C52.2116 160.111 51.518 164.186 51.518 164.186C51.518 164.186 51.4549 163.621 51.0766 163.935C50.6982 164.248 49.6263 162.242 49.311 160.8C48.9957 159.358 46.0951 155.722 46.0951 155.722Z" fill="url(#paint39_linear)"/>
<g opacity="0.07">
<path d="M49.311 182.179C49.2479 181.991 50.446 182.868 49.0588 181.865C47.104 180.486 47.9868 174.593 47.9868 174.593C47.2932 176.097 46.032 177.289 44.4556 177.916C41.9333 178.856 41.1766 178.166 45.0231 180.361C48.8696 182.555 46.8518 183.307 46.5995 186.191" fill="white"/>
</g>
<g opacity="0.07">
<path d="M24.5294 209.889L19.2326 241.862C19.2326 241.862 19.2957 247.567 20.3046 248.382C21.3135 249.197 24.7186 249.762 25.4753 250.326C26.232 250.89 34.4294 253.586 32.2855 249.009C31.781 248.006 20.746 241.862 25.7275 235.405C30.7091 228.948 29.7632 220.045 27.4301 213.839C26.0428 210.202 25.3492 206.315 25.5384 202.428L24.5294 209.889Z" fill="black"/>
</g>
<path opacity="0.07" d="M33.4205 252.959C33.4205 252.959 28.9434 276.657 31.2766 286.123C34.8078 300.48 29.7001 319.915 29.7001 329.256C29.7001 335.275 32.0963 352.076 32.2224 358.847C32.2855 360.916 33.7358 364.866 32.6638 365.806C32.1594 366.182 29.3218 365.305 27.7454 364.552C26.9256 364.176 26.4212 363.298 26.5473 362.421L27.4931 358.346L28.8173 353.017L19.5479 266.312C19.5479 266.312 16.5211 247.003 18.2237 246.94C19.9262 246.878 33.4205 252.959 33.4205 252.959Z" fill="black"/>
<path d="M25.2231 209.325L39.7263 204.936L40.3568 245.687L27.1148 250.702L25.2231 209.325Z" fill="white"/>
<path d="M39.7263 204.936L56.7518 209.952V250.075L40.3568 245.687L39.7263 204.936Z" fill="white"/>
<path d="M56.7518 209.952L73.1467 204.936L70.8766 226.126L66.8409 229.073C66.3995 229.386 66.1473 229.825 66.0843 230.327L65.9581 231.079C65.8951 231.455 65.9581 231.831 66.0843 232.208L66.7779 233.9C67.0301 234.465 67.4085 234.966 67.976 235.28L70.3091 236.533L70.183 245.122L56.7518 250.075V209.952Z" fill="#E1E6FC"/>
<path d="M25.2231 209.325L9.3326 204.435L11.5396 225.938L15.5122 228.948C15.8906 229.261 16.2059 229.7 16.2689 230.201L16.395 230.954C16.4581 231.33 16.395 231.769 16.2689 232.082L15.6383 233.838C15.3861 234.402 15.0078 234.903 14.4402 235.217L12.1702 236.471L12.2963 245.561L27.1148 250.702L25.2231 209.325Z" fill="#E1E6FC"/>
<path d="M39.411 205.062L39.7263 204.936L39.9785 204.999L40.7352 245.812L40.3568 245.687L39.9154 245.812L39.411 205.062Z" fill="#E1E6FC"/>
</g>
<defs>
<linearGradient id="paint0_linear" x1="131.884" y1="397.519" x2="489.393" y2="146.569" gradientUnits="userSpaceOnUse">
<stop stop-color="#93291E"/>
<stop offset="1" stop-color="#ED213A"/>
</linearGradient>
<linearGradient id="paint1_linear" x1="101.901" y1="119.873" x2="99.8156" y2="321.339" gradientUnits="userSpaceOnUse">
<stop offset="0.03" stop-color="white"/>
<stop offset="1" stop-color="white" stop-opacity="0"/>
</linearGradient>
<linearGradient id="paint2_linear" x1="89.4873" y1="90.0858" x2="118.628" y2="60.9607" gradientUnits="userSpaceOnUse">
<stop stop-color="#93291E"/>
<stop offset="1" stop-color="#ED213A"/>
</linearGradient>
<linearGradient id="paint3_linear" x1="63.9757" y1="111.458" x2="65.24" y2="100.035" gradientUnits="userSpaceOnUse">
<stop stop-color="#93291E"/>
<stop offset="1" stop-color="#ED213A"/>
</linearGradient>
<linearGradient id="paint4_linear" x1="128.417" y1="111.458" x2="132.734" y2="101.832" gradientUnits="userSpaceOnUse">
<stop stop-color="#93291E"/>
<stop offset="1" stop-color="#ED213A"/>
</linearGradient>
<linearGradient id="paint5_linear" x1="63.9757" y1="123.645" x2="65.7792" y2="112.371" gradientUnits="userSpaceOnUse">
<stop stop-color="#93291E"/>
<stop offset="1" stop-color="#ED213A"/>
</linearGradient>
<linearGradient id="paint6_linear" x1="134.857" y1="123.645" x2="140.604" y2="117.238" gradientUnits="userSpaceOnUse">
<stop stop-color="#93291E"/>
<stop offset="1" stop-color="#ED213A"/>
</linearGradient>
<linearGradient id="paint7_linear" x1="64.426" y1="137.19" x2="65.573" y2="125.742" gradientUnits="userSpaceOnUse">
<stop stop-color="#93291E"/>
<stop offset="1" stop-color="#ED213A"/>
</linearGradient>
<linearGradient id="paint8_linear" x1="132.508" y1="137.19" x2="137.706" y2="128.877" gradientUnits="userSpaceOnUse">
<stop stop-color="#93291E"/>
<stop offset="1" stop-color="#ED213A"/>
</linearGradient>
<linearGradient id="paint9_linear" x1="64.426" y1="149.263" x2="65.788" y2="137.863" gradientUnits="userSpaceOnUse">
<stop stop-color="#93291E"/>
<stop offset="1" stop-color="#ED213A"/>
</linearGradient>
<linearGradient id="paint10_linear" x1="128.867" y1="149.263" x2="133.184" y2="139.636" gradientUnits="userSpaceOnUse">
<stop stop-color="#93291E"/>
<stop offset="1" stop-color="#ED213A"/>
</linearGradient>
<linearGradient id="paint11_linear" x1="64.426" y1="161.901" x2="66.6534" y2="150.784" gradientUnits="userSpaceOnUse">
<stop stop-color="#93291E"/>
<stop offset="1" stop-color="#ED213A"/>
</linearGradient>
<linearGradient id="paint12_linear" x1="123.968" y1="161.901" x2="127.366" y2="151.442" gradientUnits="userSpaceOnUse">
<stop stop-color="#93291E"/>
<stop offset="1" stop-color="#ED213A"/>
</linearGradient>
<linearGradient id="paint13_linear" x1="64.426" y1="174.088" x2="65.8202" y2="162.696" gradientUnits="userSpaceOnUse">
<stop stop-color="#93291E"/>
<stop offset="1" stop-color="#ED213A"/>
</linearGradient>
<linearGradient id="paint14_linear" x1="128.867" y1="174.088" x2="133.184" y2="164.461" gradientUnits="userSpaceOnUse">
<stop stop-color="#93291E"/>
<stop offset="1" stop-color="#ED213A"/>
</linearGradient>
<linearGradient id="paint15_linear" x1="375.015" y1="81.8832" x2="383.353" y2="73.5494" gradientUnits="userSpaceOnUse">
<stop stop-color="#93291E"/>
<stop offset="1" stop-color="#ED213A"/>
</linearGradient>
<linearGradient id="paint16_linear" x1="355.487" y1="103.456" x2="363.826" y2="95.1226" gradientUnits="userSpaceOnUse">
<stop stop-color="#93291E"/>
<stop offset="1" stop-color="#ED213A"/>
</linearGradient>
<linearGradient id="paint17_linear" x1="154.71" y1="205.737" x2="156" y2="205.277" gradientUnits="userSpaceOnUse">
<stop stop-color="#93291E"/>
<stop offset="1" stop-color="#ED213A"/>
</linearGradient>
<linearGradient id="paint18_linear" x1="168" y1="192" x2="132" y2="226" gradientUnits="userSpaceOnUse">
<stop stop-color="#ED213A"/>
<stop offset="1" stop-color="#93291E"/>
</linearGradient>
<linearGradient id="paint19_linear" x1="143.12" y1="217.598" x2="157.908" y2="202.819" gradientUnits="userSpaceOnUse">
<stop stop-color="#93291E"/>
<stop offset="1" stop-color="#ED213A"/>
</linearGradient>
<linearGradient id="paint20_linear" x1="356.939" y1="98.0797" x2="320.939" y2="132.08" gradientUnits="userSpaceOnUse">
<stop stop-color="#ED213A"/>
<stop offset="1" stop-color="#93291E"/>
</linearGradient>
<linearGradient id="paint21_linear" x1="332.059" y1="123.683" x2="346.847" y2="108.904" gradientUnits="userSpaceOnUse">
<stop stop-color="#93291E"/>
<stop offset="1" stop-color="#ED213A"/>
</linearGradient>
<linearGradient id="paint22_linear" x1="308.653" y1="121.409" x2="316.991" y2="113.075" gradientUnits="userSpaceOnUse">
<stop stop-color="#93291E"/>
<stop offset="1" stop-color="#ED213A"/>
</linearGradient>
<linearGradient id="paint23_linear" x1="186.211" y1="263.633" x2="194.549" y2="255.299" gradientUnits="userSpaceOnUse">
<stop stop-color="#93291E"/>
<stop offset="1" stop-color="#ED213A"/>
</linearGradient>
<linearGradient id="paint24_linear" x1="200.991" y1="262.352" x2="201.352" y2="256.598" gradientUnits="userSpaceOnUse">
<stop stop-color="#93291E"/>
<stop offset="1" stop-color="#ED213A"/>
</linearGradient>
<linearGradient id="paint25_linear" x1="200.991" y1="270.468" x2="201.352" y2="264.714" gradientUnits="userSpaceOnUse">
<stop stop-color="#93291E"/>
<stop offset="1" stop-color="#ED213A"/>
</linearGradient>
<linearGradient id="paint26_linear" x1="200.991" y1="280.695" x2="201.352" y2="274.942" gradientUnits="userSpaceOnUse">
<stop stop-color="#93291E"/>
<stop offset="1" stop-color="#ED213A"/>
</linearGradient>
<linearGradient id="paint27_linear" x1="200.991" y1="288.843" x2="201.551" y2="283.122" gradientUnits="userSpaceOnUse">
<stop stop-color="#93291E"/>
<stop offset="1" stop-color="#ED213A"/>
</linearGradient>
<linearGradient id="paint28_linear" x1="383.972" y1="86.579" x2="384.333" y2="80.8256" gradientUnits="userSpaceOnUse">
<stop stop-color="#93291E"/>
<stop offset="1" stop-color="#ED213A"/>
</linearGradient>
<linearGradient id="paint29_linear" x1="383.972" y1="94.6947" x2="384.333" y2="88.9413" gradientUnits="userSpaceOnUse">
<stop stop-color="#93291E"/>
<stop offset="1" stop-color="#ED213A"/>
</linearGradient>
<linearGradient id="paint30_linear" x1="383.972" y1="104.922" x2="384.333" y2="99.1688" gradientUnits="userSpaceOnUse">
<stop stop-color="#93291E"/>
<stop offset="1" stop-color="#ED213A"/>
</linearGradient>
<linearGradient id="paint31_linear" x1="383.972" y1="113.071" x2="384.533" y2="107.349" gradientUnits="userSpaceOnUse">
<stop stop-color="#93291E"/>
<stop offset="1" stop-color="#ED213A"/>
</linearGradient>
<linearGradient id="paint32_linear" x1="476.452" y1="292.935" x2="393.334" y2="292.935" gradientUnits="userSpaceOnUse">
<stop stop-color="#FDFFAD"/>
<stop offset="0.41" stop-color="#EFF0C3"/>
<stop offset="0.71" stop-color="#FDE4A6"/>
<stop offset="1" stop-color="#FFCFA8"/>
</linearGradient>
<linearGradient id="paint33_linear" x1="458.748" y1="303.806" x2="428.824" y2="303.806" gradientUnits="userSpaceOnUse">
<stop stop-color="#4B45BD"/>
<stop offset="1" stop-color="#58CAEA"/>
</linearGradient>
<linearGradient id="paint34_linear" x1="459.132" y1="291.899" x2="415.71" y2="255.539" gradientUnits="userSpaceOnUse">
<stop stop-color="#93291E"/>
<stop offset="1" stop-color="#ED213A"/>
</linearGradient>
<linearGradient id="paint35_linear" x1="455.955" y1="230.068" x2="435.407" y2="230.068" gradientUnits="userSpaceOnUse">
<stop stop-color="#4B45BD"/>
<stop offset="1" stop-color="#58CAEA"/>
</linearGradient>
<linearGradient id="paint36_linear" x1="17.0887" y1="299.352" x2="63.5928" y2="299.352" gradientUnits="userSpaceOnUse">
<stop stop-color="#4B45BD"/>
<stop offset="1" stop-color="#58CAEA"/>
</linearGradient>
<linearGradient id="paint37_linear" x1="8.70203" y1="196.417" x2="73.9664" y2="196.417" gradientUnits="userSpaceOnUse">
<stop stop-color="#FDFFAD"/>
<stop offset="0.41" stop-color="#EFF0C3"/>
<stop offset="0.71" stop-color="#FDE4A6"/>
<stop offset="1" stop-color="#FFCFA8"/>
</linearGradient>
<linearGradient id="paint38_linear" x1="2.81172" y1="255.792" x2="77.1147" y2="181.349" gradientUnits="userSpaceOnUse">
<stop stop-color="#93291E"/>
<stop offset="1" stop-color="#ED213A"/>
</linearGradient>
<linearGradient id="paint39_linear" x1="30.2706" y1="156.676" x2="52.0972" y2="156.676" gradientUnits="userSpaceOnUse">
<stop stop-color="#4B45BD"/>
<stop offset="1" stop-color="#58CAEA"/>
</linearGradient>
<clipPath id="clip0">
<rect width="83.1009" height="154.198" fill="white" transform="matrix(-1 0 0 1 476.445 217.467)"/>
</clipPath>
<clipPath id="clip1">
<rect width="77.5608" height="220.679" fill="white" transform="translate(0 149.139)"/>
</clipPath>
</defs>
</svg>
