<svg width="1024" height="134" viewBox="0 0 1024 134" fill="none" xmlns="http://www.w3.org/2000/svg">
<g clip-path="url(#clip0_524_222)">
<path d="M8.94434 125.056V111.64H62.2643C65.7043 111.64 67.4243 109.92 67.4243 106.48V94.0958C67.4243 90.7708 65.991 88.8788 63.1243 88.4198L29.5843 81.5398C15.8243 78.7878 8.94434 69.5571 8.94434 53.8478V44.2158C8.94434 24.9518 18.5763 15.3198 37.8403 15.3198H77.2283L88.7523 24.2638V37.6798H38.8723C35.4323 37.6798 33.7123 39.3998 33.7123 42.8398V54.0198C33.7123 57.2305 35.1456 59.1225 38.0123 59.6958L71.5523 66.4038C85.3123 69.1558 92.1923 78.3868 92.1923 94.0958V105.104C92.1923 124.368 82.5603 134 63.2963 134H20.4683L8.94434 125.056ZM115.221 134V15.3198H196.405V37.6798H139.989V61.7598H191.245V84.1198H139.989V111.64H196.405V134H115.221ZM217.306 105.104V44.2158C217.306 24.9518 226.938 15.3198 246.202 15.3198H285.418C304.682 15.3198 314.314 24.9518 314.314 44.2158V105.104C314.314 124.368 304.682 134 285.418 134H246.202C226.938 134 217.306 124.368 217.306 105.104ZM242.074 106.48C242.074 109.92 243.794 111.64 247.234 111.64H284.386C287.826 111.64 289.546 109.92 289.546 106.48V42.8398C289.546 39.3998 287.826 37.6798 284.386 37.6798H247.234C243.794 37.6798 242.074 39.3998 242.074 42.8398V106.48ZM382.124 134V15.3198H439.916C459.18 15.3198 468.812 24.9518 468.812 44.2158V63.8238C468.812 78.1568 463.48 87.1008 452.816 90.6558L472.252 128.84L469.328 134H448L427.016 92.7198H406.892V134H382.124ZM406.892 70.3598H438.884C442.324 70.3598 444.044 68.6398 444.044 65.1998V42.8398C444.044 39.3998 442.324 37.6798 438.884 37.6798H406.892V70.3598Z" fill="#211D30"/>
<path d="M625.008 106.136V71.0482C625.008 52.4722 634.296 43.1842 652.872 43.1842H684.864L695.184 50.9242V63.8242H654.248C650.579 63.8242 648.744 65.6589 648.744 69.3282V107.856C648.744 111.525 650.579 113.36 654.248 113.36H695.184V126.26L684.864 134H652.872C634.296 134 625.008 124.712 625.008 106.136ZM715.407 134V6.72021H739.143V77.4122L770.619 43.1842H794.011L795.903 47.1402L764.427 81.0242L798.311 130.044L796.419 134H773.199L748.775 98.0522L739.143 108.544V134H715.407ZM813.805 106.136V71.0482C813.805 52.4722 823.093 43.1842 841.669 43.1842H864.029C882.605 43.1842 891.893 52.4722 891.893 71.0482V97.3642H837.541V107.856C837.541 111.525 839.376 113.36 843.045 113.36H888.453V126.26L878.133 134H841.669C823.093 134 813.805 124.712 813.805 106.136ZM837.541 79.1322H868.157V69.3282C868.157 65.6589 866.322 63.8242 862.653 63.8242H843.045C839.376 63.8242 837.541 65.6589 837.541 69.3282V79.1322ZM914.602 106.136V15.3202H938.338V43.1842H967.922V63.8242H938.338V107.856C938.338 111.525 940.173 113.36 943.842 113.36H969.642V126.26L959.322 134H942.466C923.89 134 914.602 124.712 914.602 106.136Z" fill="#211D30"/>
<path d="M986.985 134V109.404H1012.61V134H986.985Z" fill="#660CFF"/>
<path fill-rule="evenodd" clip-rule="evenodd" d="M536.671 90.606C533.698 72.6115 537.057 60.961 546.707 55.6208C556.352 60.961 559.711 72.6115 556.738 90.606C566.877 96.417 571.981 103.015 572.018 110.411C564.499 109.22 559.432 108.605 556.775 108.572C557.892 118.921 562.438 127.397 570.408 134C590.685 126.211 606.309 108.533 611.836 86.678C607.886 86.639 604.248 86.606 601.065 86.567C592.151 86.423 586.628 86.029 586.628 85.343C586.628 84.694 592.151 84.262 601.065 84.118C604.425 84.08 608.268 84.008 612.465 83.969C613.13 80.833 613.581 77.587 613.828 74.3068L608.826 74.2347C599.911 74.0907 594.389 73.6921 594.389 73.0053C594.389 72.357 599.911 71.9248 608.826 71.7807L613.967 71.7087C614 70.8779 614 70.0471 614 69.1827C614 66.7671 613.898 64.4235 613.651 62.0752C605.648 62.0416 598.409 61.9695 592.644 61.8975C583.729 61.7534 578.202 61.3548 578.202 60.6729C578.202 60.0198 583.729 59.5876 592.644 59.4435C598.339 59.3715 605.439 59.2994 613.302 59.2658C612.953 56.6293 612.427 54.0697 611.767 51.51C605.192 51.4716 599.283 51.3996 594.356 51.3275C585.441 51.1835 579.918 50.7897 579.918 50.1029C579.918 49.4546 585.441 49.0224 594.356 48.8783C599.074 48.8063 604.704 48.7295 610.994 48.6958C609.668 44.2248 607.886 39.9315 605.718 35.8928C596.906 35.8544 589.005 35.7823 582.747 35.7103C573.833 35.5662 568.31 35.1676 568.31 34.4857C568.31 33.8374 573.833 33.4004 582.747 33.2563C588.624 33.1506 595.961 33.1122 604.108 33.0786C601.977 29.5056 599.562 26.1536 596.873 23.0513L594.356 23.0129C585.441 22.8688 579.918 22.475 579.918 21.7883C579.918 21.1399 585.441 20.7077 594.356 20.5637H594.635C582.505 7.8662 565.616 0 546.986 0C529.366 0 513.356 7.0018 501.398 18.4698C504.79 18.5035 507.935 18.5419 510.732 18.5803C519.646 18.7244 525.169 19.1182 525.169 19.8049C525.169 20.4532 519.646 20.8854 510.732 21.0295C507.2 21.1015 503.18 21.1399 498.741 21.1736C496.82 23.229 495.033 25.3612 493.391 27.6327C503.25 27.6663 512.132 27.7384 518.981 27.8488C527.896 27.9929 533.419 28.3867 533.419 29.0734C533.419 29.7217 527.896 30.154 518.981 30.298C511.639 30.4085 502.026 30.4805 491.399 30.5189C489.44 33.5108 487.691 36.6852 486.225 39.9652C493.46 40.0036 499.998 40.0756 505.348 40.1477C514.263 40.2917 519.786 40.6903 519.786 41.3723C519.786 42.0206 514.263 42.4576 505.348 42.6017C499.718 42.6737 492.763 42.7457 485.034 42.7793C484.304 44.6186 483.638 46.4964 483.043 48.4413C486.821 48.4797 490.315 48.5133 493.391 48.5518C502.305 48.6958 507.828 49.0944 507.828 49.7764C507.828 50.4247 502.305 50.8617 493.391 51.0058C490.106 51.0394 486.365 51.1114 482.308 51.1498C481.507 54.2522 480.875 57.4265 480.493 60.7065C492.972 60.7065 504.334 60.7786 512.723 60.9226C521.638 61.0667 527.161 61.4653 527.161 62.1472C527.161 62.8003 521.638 63.2326 512.723 63.3766C504.264 63.5207 492.795 63.5927 480.214 63.5927C480.07 65.432 480 67.3098 480 69.2211C480 70.3016 480.037 71.3485 480.07 72.3954C486.295 72.4291 491.888 72.5011 496.573 72.5731C505.488 72.7172 511.011 73.1158 511.011 73.7977C511.011 74.4508 505.488 74.8831 496.573 75.0271C491.925 75.0992 486.398 75.1712 480.247 75.2048C480.665 80.185 481.577 85.016 482.973 89.636L485.318 89.669C494.233 89.814 499.756 90.212 499.756 90.899C499.756 91.547 494.233 91.979 485.318 92.123L483.741 92.157C490.278 111.386 504.79 126.715 523.21 133.928C531.078 127.363 535.587 118.921 536.671 108.644C534.014 108.677 528.947 109.253 521.428 110.483C521.466 103.126 526.532 96.522 536.708 90.678L536.671 90.606Z" fill="#660CFF"/>
<path fill-rule="evenodd" clip-rule="evenodd" d="M546.707 72.2128C549.01 72.2128 550.899 70.2631 550.899 67.8859C550.899 65.504 549.01 63.5542 546.707 63.5542C544.399 63.5542 542.51 65.504 542.51 67.8859C542.51 70.2631 544.399 72.2128 546.707 72.2128Z" fill="#660CFF"/>
</g>
<defs>
<clipPath id="clip0_524_222">
<rect width="1024" height="134" fill="white"/>
</clipPath>
</defs>
</svg>
