<svg width="16" height="16" viewBox="0 0 16 16" fill="none" xmlns="http://www.w3.org/2000/svg">
<path d="M7.99998 10.4C8.63649 10.4 9.24694 10.1471 9.69703 9.69706C10.1471 9.24697 10.4 8.63653 10.4 8.00001C10.4 7.36349 10.1471 6.75304 9.69703 6.30295C9.24694 5.85286 8.63649 5.60001 7.99998 5.60001C7.36346 5.60001 6.75301 5.85286 6.30292 6.30295C5.85283 6.75304 5.59998 7.36349 5.59998 8.00001C5.59998 8.63653 5.85283 9.24697 6.30292 9.69706C6.75301 10.1471 7.36346 10.4 7.99998 10.4V10.4ZM8.39998 2.00001C8.39998 1.89392 8.35783 1.79218 8.28282 1.71716C8.2078 1.64215 8.10606 1.60001 7.99998 1.60001C7.89389 1.60001 7.79215 1.64215 7.71713 1.71716C7.64212 1.79218 7.59998 1.89392 7.59998 2.00001V3.21601C6.46892 3.3106 5.40796 3.80286 4.6054 4.60543C3.80283 5.40799 3.31057 6.46895 3.21598 7.60001H1.99998C1.89389 7.60001 1.79215 7.64215 1.71713 7.71716C1.64212 7.79218 1.59998 7.89392 1.59998 8.00001C1.59998 8.10609 1.64212 8.20783 1.71713 8.28285C1.79215 8.35786 1.89389 8.40001 1.99998 8.40001H3.21598C3.31057 9.53106 3.80283 10.592 4.6054 11.3946C5.40796 12.1972 6.46892 12.6894 7.59998 12.784V14C7.59998 14.1061 7.64212 14.2078 7.71713 14.2828C7.79215 14.3579 7.89389 14.4 7.99998 14.4C8.10606 14.4 8.2078 14.3579 8.28282 14.2828C8.35783 14.2078 8.39998 14.1061 8.39998 14V12.784C9.53097 12.6893 10.5918 12.1969 11.3944 11.3944C12.1969 10.5919 12.6892 9.531 12.784 8.40001H14C14.1061 8.40001 14.2078 8.35786 14.2828 8.28285C14.3578 8.20783 14.4 8.10609 14.4 8.00001C14.4 7.89392 14.3578 7.79218 14.2828 7.71716C14.2078 7.64215 14.1061 7.60001 14 7.60001H12.784C12.6894 6.46895 12.1971 5.40799 11.3946 4.60543C10.592 3.80286 9.53103 3.3106 8.39998 3.21601V2.00001ZM7.99998 12C6.93911 12 5.92169 11.5786 5.17155 10.8284C4.4214 10.0783 3.99998 9.06087 3.99998 8.00001C3.99998 6.93914 4.4214 5.92172 5.17155 5.17158C5.92169 4.42143 6.93911 4.00001 7.99998 4.00001C9.06084 4.00001 10.0783 4.42143 10.8284 5.17158C11.5785 5.92172 12 6.93914 12 8.00001C12 9.06087 11.5785 10.0783 10.8284 10.8284C10.0783 11.5786 9.06084 12 7.99998 12Z" fill="white"/>
</svg>
