<svg width="323" height="70" viewBox="0 0 323 70" fill="none" xmlns="http://www.w3.org/2000/svg">
<g clip-path="url(#clip0)">
<path d="M82.9273 67.5862C82.8316 67.5862 82.7502 67.5572 82.6832 67.4993C82.6258 67.4317 82.5971 67.3497 82.5971 67.2531V57.7814C82.5971 57.6848 82.6258 57.6076 82.6832 57.5496C82.7502 57.4821 82.8316 57.4483 82.9273 57.4483H83.6881C83.7838 57.4483 83.8604 57.4821 83.9178 57.5496C83.9848 57.6076 84.0183 57.6848 84.0183 57.7814V66.3262H88.7843C88.8896 66.3262 88.9709 66.36 89.0284 66.4276C89.0954 66.4855 89.1289 66.5676 89.1289 66.6738V67.2531C89.1289 67.3497 89.0954 67.4317 89.0284 67.4993C88.9614 67.5572 88.88 67.5862 88.7843 67.5862H82.9273ZM105.217 67.731C103.964 67.731 102.992 67.4028 102.303 66.7462C101.624 66.08 101.265 65.0807 101.227 63.7483C101.217 63.4586 101.212 63.0483 101.212 62.5172C101.212 61.9862 101.217 61.5807 101.227 61.3007C101.265 59.9972 101.638 59.0076 102.346 58.3317C103.054 57.6462 104.012 57.3034 105.217 57.3034C106.414 57.3034 107.366 57.6462 108.074 58.3317C108.782 59.0076 109.156 59.9972 109.194 61.3007C109.213 61.8607 109.223 62.2662 109.223 62.5172C109.223 62.7586 109.213 63.169 109.194 63.7483C109.156 65.0807 108.792 66.08 108.103 66.7462C107.423 67.4028 106.462 67.731 105.217 67.731ZM105.217 66.5C105.973 66.5 106.576 66.2683 107.026 65.8048C107.476 65.3414 107.72 64.6317 107.758 63.6759C107.777 63.0965 107.787 62.7103 107.787 62.5172C107.787 62.3048 107.777 61.9186 107.758 61.3586C107.72 60.4028 107.471 59.6931 107.012 59.2296C106.562 58.7662 105.964 58.5345 105.217 58.5345C104.461 58.5345 103.854 58.7662 103.394 59.2296C102.944 59.6931 102.7 60.4028 102.662 61.3586C102.653 61.6386 102.648 62.0248 102.648 62.5172C102.648 63 102.653 63.3862 102.662 63.6759C102.7 64.6317 102.944 65.3414 103.394 65.8048C103.854 66.2683 104.461 66.5 105.217 66.5ZM125.986 67.731C124.704 67.731 123.728 67.3834 123.058 66.6883C122.397 65.9931 122.043 65.0324 121.995 63.8062C121.986 63.5455 121.981 63.1207 121.981 62.5317C121.981 61.9331 121.986 61.4986 121.995 61.2283C122.043 60.0117 122.402 59.0559 123.072 58.3607C123.742 57.6558 124.713 57.3034 125.986 57.3034C126.838 57.3034 127.561 57.4579 128.154 57.7669C128.747 58.0662 129.197 58.4621 129.503 58.9545C129.81 59.4469 129.977 59.9731 130.006 60.5331V60.5621C130.006 60.6393 129.972 60.7069 129.905 60.7648C129.848 60.8131 129.781 60.8372 129.704 60.8372H128.915C128.723 60.8372 128.604 60.7262 128.556 60.5041C128.393 59.78 128.101 59.2731 127.68 58.9834C127.259 58.6841 126.694 58.5345 125.986 58.5345C124.34 58.5345 123.488 59.4565 123.431 61.3007C123.421 61.5614 123.417 61.9621 123.417 62.5028C123.417 63.0434 123.421 63.4538 123.431 63.7338C123.488 65.5779 124.34 66.5 125.986 66.5C126.694 66.5 127.259 66.3552 127.68 66.0655C128.111 65.7662 128.403 65.2545 128.556 64.5303C128.585 64.4048 128.628 64.3179 128.685 64.2696C128.743 64.2214 128.819 64.1972 128.915 64.1972H129.704C129.79 64.1972 129.862 64.2262 129.92 64.2841C129.987 64.3324 130.015 64.4 130.006 64.4869C129.977 65.0565 129.81 65.5876 129.503 66.08C129.197 66.5724 128.747 66.9731 128.154 67.2821C127.561 67.5814 126.838 67.731 125.986 67.731ZM142.211 67.5862C142.134 67.5862 142.067 67.5572 142.01 67.4993C141.952 67.4414 141.924 67.3738 141.924 67.2965C141.924 67.2193 141.928 67.1662 141.938 67.1372L145.498 57.7669C145.575 57.5545 145.728 57.4483 145.957 57.4483H146.934C147.163 57.4483 147.316 57.5545 147.393 57.7669L150.939 67.1372L150.968 67.2965C150.968 67.3738 150.939 67.4414 150.881 67.4993C150.824 67.5572 150.757 67.5862 150.68 67.5862H149.948C149.843 67.5862 149.762 67.5621 149.704 67.5138C149.647 67.4559 149.609 67.3979 149.589 67.34L148.8 65.2834H144.091L143.302 67.34C143.283 67.3979 143.24 67.4559 143.173 67.5138C143.115 67.5621 143.039 67.5862 142.943 67.5862H142.211ZM148.384 64.0379L146.446 58.8965L144.508 64.0379H148.384ZM165.017 67.5862C164.922 67.5862 164.84 67.5572 164.773 67.4993C164.716 67.4317 164.687 67.3497 164.687 67.2531V58.7372H161.931C161.835 58.7372 161.754 58.7083 161.687 58.6503C161.629 58.5827 161.601 58.5007 161.601 58.4041V57.7959C161.601 57.6993 161.629 57.6172 161.687 57.5496C161.754 57.4821 161.835 57.4483 161.931 57.4483H168.85C168.956 57.4483 169.037 57.4821 169.094 57.5496C169.161 57.6076 169.195 57.6896 169.195 57.7959V58.4041C169.195 58.5007 169.161 58.5827 169.094 58.6503C169.027 58.7083 168.946 58.7372 168.85 58.7372H166.108V67.2531C166.108 67.3497 166.075 67.4317 166.008 67.4993C165.941 67.5572 165.86 67.5862 165.764 67.5862H165.017ZM182.188 67.5862C182.092 67.5862 182.011 67.5572 181.944 67.4993C181.887 67.4317 181.858 67.3497 181.858 67.2531V57.7814C181.858 57.6848 181.887 57.6076 181.944 57.5496C182.011 57.4821 182.092 57.4483 182.188 57.4483H182.949C183.045 57.4483 183.121 57.4821 183.179 57.5496C183.246 57.6076 183.279 57.6848 183.279 57.7814V67.2531C183.279 67.3497 183.246 67.4317 183.179 67.4993C183.121 67.5572 183.045 67.5862 182.949 67.5862H182.188ZM200.455 67.731C199.201 67.731 198.229 67.4028 197.54 66.7462C196.861 66.08 196.502 65.0807 196.464 63.7483C196.454 63.4586 196.449 63.0483 196.449 62.5172C196.449 61.9862 196.454 61.5807 196.464 61.3007C196.502 59.9972 196.875 59.0076 197.583 58.3317C198.292 57.6462 199.249 57.3034 200.455 57.3034C201.651 57.3034 202.603 57.6462 203.311 58.3317C204.02 59.0076 204.393 59.9972 204.431 61.3007C204.45 61.8607 204.46 62.2662 204.46 62.5172C204.46 62.7586 204.45 63.169 204.431 63.7483C204.393 65.0807 204.029 66.08 203.34 66.7462C202.66 67.4028 201.699 67.731 200.455 67.731ZM200.455 66.5C201.211 66.5 201.814 66.2683 202.263 65.8048C202.713 65.3414 202.957 64.6317 202.995 63.6759C203.015 63.0965 203.024 62.7103 203.024 62.5172C203.024 62.3048 203.015 61.9186 202.995 61.3586C202.957 60.4028 202.708 59.6931 202.249 59.2296C201.799 58.7662 201.201 58.5345 200.455 58.5345C199.698 58.5345 199.091 58.7662 198.631 59.2296C198.182 59.6931 197.938 60.4028 197.899 61.3586C197.89 61.6386 197.885 62.0248 197.885 62.5172C197.885 63 197.89 63.3862 197.899 63.6759C197.938 64.6317 198.182 65.3414 198.631 65.8048C199.091 66.2683 199.698 66.5 200.455 66.5ZM217.936 67.5862C217.841 67.5862 217.759 67.5572 217.692 67.4993C217.635 67.4317 217.606 67.3497 217.606 67.2531V57.7959C217.606 57.6896 217.635 57.6076 217.692 57.5496C217.759 57.4821 217.841 57.4483 217.936 57.4483H218.597C218.769 57.4483 218.889 57.5159 218.955 57.651L223.722 65.0372V57.7959C223.722 57.6896 223.75 57.6076 223.808 57.5496C223.875 57.4821 223.956 57.4483 224.052 57.4483H224.741C224.846 57.4483 224.927 57.4821 224.985 57.5496C225.052 57.6076 225.085 57.6896 225.085 57.7959V67.2386C225.085 67.3352 225.052 67.4172 224.985 67.4848C224.927 67.5524 224.851 67.5862 224.755 67.5862H224.066C223.923 67.5862 223.808 67.5186 223.722 67.3834L218.97 60.0696V67.2531C218.97 67.3497 218.936 67.4317 218.869 67.4993C218.802 67.5572 218.721 67.5862 218.625 67.5862H217.936ZM253.543 67.5862C253.447 67.5862 253.366 67.5572 253.299 67.4993C253.242 67.4317 253.213 67.3497 253.213 67.2531V57.7959C253.213 57.6896 253.242 57.6076 253.299 57.5496C253.366 57.4821 253.447 57.4483 253.543 57.4483H257.189C258.271 57.4483 259.123 57.7138 259.745 58.2448C260.367 58.7759 260.678 59.5434 260.678 60.5476C260.678 61.5517 260.367 62.3193 259.745 62.8503C259.132 63.3717 258.28 63.6324 257.189 63.6324H254.648V67.2531C254.648 67.3497 254.615 67.4317 254.548 67.4993C254.481 67.5572 254.4 67.5862 254.304 67.5862H253.543ZM257.118 62.4159C257.816 62.4159 258.343 62.2565 258.697 61.9379C259.06 61.6193 259.242 61.1559 259.242 60.5476C259.242 59.9393 259.065 59.4759 258.711 59.1572C258.357 58.829 257.826 58.6648 257.118 58.6648H254.634V62.4159H257.118ZM272.229 67.5862C272.153 67.5862 272.086 67.5572 272.028 67.4993C271.971 67.4414 271.942 67.3738 271.942 67.2965C271.942 67.2193 271.947 67.1662 271.956 67.1372L275.517 57.7669C275.593 57.5545 275.746 57.4483 275.976 57.4483H276.952C277.182 57.4483 277.335 57.5545 277.412 57.7669L280.957 67.1372L280.986 67.2965C280.986 67.3738 280.957 67.4414 280.9 67.4993C280.843 67.5572 280.776 67.5862 280.699 67.5862H279.967C279.862 67.5862 279.78 67.5621 279.723 67.5138C279.665 67.4559 279.627 67.3979 279.608 67.34L278.818 65.2834H274.11L273.32 67.34C273.301 67.3979 273.258 67.4559 273.191 67.5138C273.134 67.5621 273.057 67.5862 272.961 67.5862H272.229ZM278.402 64.0379L276.464 58.8965L274.526 64.0379H278.402ZM297.052 67.731C295.799 67.731 294.822 67.3883 294.124 66.7028C293.435 66.0076 293.066 65.0614 293.018 63.8641C293.009 63.5745 293.004 63.1207 293.004 62.5028C293.004 61.8752 293.009 61.4214 293.018 61.1414C293.066 59.9538 293.44 59.0172 294.138 58.3317C294.837 57.6462 295.808 57.3034 297.052 57.3034C297.895 57.3034 298.608 57.4579 299.191 57.7669C299.785 58.0662 300.23 58.4331 300.526 58.8676C300.823 59.3021 300.981 59.7076 301 60.0841V60.1131C301 60.1903 300.971 60.2531 300.914 60.3014C300.857 60.3496 300.785 60.3738 300.699 60.3738H299.852C299.756 60.3738 299.684 60.3593 299.636 60.3303C299.598 60.2917 299.56 60.2193 299.521 60.1131C299.378 59.6786 299.1 59.3069 298.689 58.9979C298.287 58.689 297.741 58.5345 297.052 58.5345C296.258 58.5345 295.636 58.7517 295.186 59.1862C294.736 59.6207 294.492 60.2965 294.454 61.2138C294.444 61.4938 294.44 61.9234 294.44 62.5028C294.44 63.0724 294.444 63.5021 294.454 63.7917C294.492 64.7186 294.736 65.4041 295.186 65.8483C295.636 66.2828 296.258 66.5 297.052 66.5C297.856 66.5 298.497 66.2779 298.976 65.8338C299.455 65.3897 299.694 64.7234 299.694 63.8352V63.2269H297.54C297.445 63.2269 297.363 63.1979 297.296 63.14C297.239 63.0724 297.21 62.9855 297.21 62.8793V62.4159C297.21 62.3193 297.239 62.2372 297.296 62.1697C297.363 62.1021 297.445 62.0683 297.54 62.0683H300.785C300.88 62.0683 300.957 62.1021 301.014 62.1697C301.081 62.2276 301.115 62.3096 301.115 62.4159V63.8062C301.115 64.5979 300.952 65.2883 300.627 65.8772C300.301 66.4662 299.833 66.9248 299.22 67.2531C298.608 67.5717 297.885 67.731 297.052 67.731ZM314.547 67.5862C314.451 67.5862 314.37 67.5572 314.303 67.4993C314.246 67.4317 314.217 67.3497 314.217 67.2531V57.7959C314.217 57.6896 314.246 57.6076 314.303 57.5496C314.37 57.4821 314.451 57.4483 314.547 57.4483H320.476C320.572 57.4483 320.648 57.4821 320.706 57.5496C320.773 57.6076 320.806 57.6896 320.806 57.7959V58.3462C320.806 58.4428 320.777 58.5248 320.72 58.5924C320.662 58.6503 320.581 58.6793 320.476 58.6793H315.595V61.851H320.16C320.256 61.851 320.332 61.8848 320.39 61.9524C320.457 62.0103 320.49 62.0924 320.49 62.1986V62.7345C320.49 62.831 320.457 62.9131 320.39 62.9807C320.332 63.0386 320.256 63.0676 320.16 63.0676H315.595V66.3552H320.591C320.696 66.3552 320.777 66.3841 320.835 66.4421C320.892 66.5 320.921 66.5821 320.921 66.6883V67.2531C320.921 67.3497 320.887 67.4317 320.82 67.4993C320.763 67.5572 320.686 67.5862 320.591 67.5862H314.547Z" fill="white"/>
<path d="M67.9111 54.0943L52.0427 38.086C48.9125 34.9283 44.2374 34.313 40.4702 36.1859L26.0247 21.6131V13.1237L8.67944 0L0.00677663 8.74916L13.0158 26.2473H21.431L35.8764 40.8201C34.0334 44.6207 34.6297 49.337 37.7599 52.4949L53.6283 68.503C55.6067 70.4989 58.8047 70.4989 60.7697 68.503L67.9111 61.2988C69.8759 59.3028 69.8759 56.0765 67.9111 54.0943ZM44.9556 30.7587C48.7905 30.7587 52.3951 32.2625 55.1052 34.9966L57.7342 37.6487C59.8753 36.7053 61.9079 35.393 63.6695 33.6159C68.6971 28.5441 70.4044 21.4081 68.8055 14.9282C68.5073 13.6979 66.9761 13.2741 66.0817 14.1764L55.9996 24.3472L46.7984 22.8025L45.2671 13.5202L55.3493 3.34928C56.2436 2.44703 55.8099 0.902257 54.5767 0.587834C48.1536 -1.01162 41.0799 0.710867 36.0662 5.76897C32.2041 9.66507 30.3883 14.8052 30.4831 19.9317L41.6084 31.1551C42.7061 30.8953 43.8445 30.7587 44.9556 30.7587ZM30.8759 41.9686L23.1926 34.2175L2.54081 55.0649C-0.846938 58.4826 -0.846938 64.0191 2.54081 67.4368C5.92858 70.8545 11.4168 70.8545 14.8045 67.4368L31.5535 50.54C30.5237 47.8197 30.212 44.8531 30.8759 41.9686ZM8.67944 64.525C6.89072 64.525 5.42719 63.0485 5.42719 61.244C5.42719 59.4259 6.87715 57.9631 8.67944 57.9631C10.4817 57.9631 11.9317 59.4259 11.9317 61.244C11.9317 63.0485 10.4817 64.525 8.67944 64.525Z" fill="white"/>
<path d="M85.1552 41.0345C84.8394 41.0345 84.5666 40.9186 84.337 40.6869C84.1073 40.4551 83.9924 40.18 83.9924 39.8614V11.7938C83.9924 11.4751 84.1073 11.2 84.337 10.9683C84.5666 10.7365 84.8394 10.6207 85.1552 10.6207H97.903C102.037 10.6207 105.267 11.562 107.593 13.4448C109.919 15.2986 111.081 17.8765 111.081 21.1786C111.081 23.0614 110.665 24.7269 109.832 26.1751C109 27.5945 107.866 28.7676 106.43 29.6945L111.727 39.6007C111.813 39.7745 111.857 39.9338 111.857 40.0786C111.857 40.3393 111.756 40.571 111.555 40.7738C111.383 40.9476 111.167 41.0345 110.909 41.0345H102.08C101.564 41.0345 101.147 40.9186 100.831 40.6869C100.544 40.4262 100.343 40.151 100.229 39.8614L96.5248 31.5627H94.7591V39.8614C94.7591 40.18 94.6443 40.4551 94.4146 40.6869C94.1849 40.9186 93.9121 41.0345 93.5963 41.0345H85.1552ZM97.903 23.3076C98.5346 23.3076 99.0227 23.1048 99.3672 22.6993C99.7118 22.2648 99.884 21.7289 99.884 21.0917C99.884 20.4545 99.7118 19.9041 99.3672 19.4407C99.0514 18.9483 98.5633 18.702 97.903 18.702H94.7591V23.3076H97.903ZM113.652 41.0345C113.393 41.0345 113.164 40.9476 112.963 40.7738C112.79 40.571 112.704 40.3393 112.704 40.0786C112.704 39.9627 112.719 39.8614 112.747 39.7745L122.351 12.0545C122.466 11.6779 122.681 11.3448 122.997 11.0551C123.313 10.7655 123.744 10.6207 124.289 10.6207H133.635C134.18 10.6207 134.611 10.7655 134.927 11.0551C135.242 11.3448 135.458 11.6779 135.573 12.0545L145.177 39.7745C145.205 39.8614 145.22 39.9627 145.22 40.0786C145.22 40.3393 145.119 40.571 144.918 40.7738C144.746 40.9476 144.531 41.0345 144.272 41.0345H136.305C135.443 41.0345 134.884 40.6724 134.625 39.9482L133.592 37.0807H124.332L123.299 39.9482C123.04 40.6724 122.48 41.0345 121.619 41.0345H113.652ZM131.395 28.6083L128.94 20.5269L126.529 28.6083H131.395ZM148.746 41.0345C148.43 41.0345 148.157 40.9186 147.928 40.6869C147.698 40.4551 147.583 40.18 147.583 39.8614V11.7938C147.583 11.4751 147.698 11.2 147.928 10.9683C148.157 10.7365 148.43 10.6207 148.746 10.6207H155.551C156.354 10.6207 156.943 10.9538 157.316 11.62L164.595 23.6551V11.7938C164.595 11.4751 164.709 11.2 164.939 10.9683C165.169 10.7365 165.442 10.6207 165.757 10.6207H173.552C173.868 10.6207 174.141 10.7365 174.371 10.9683C174.6 11.2 174.715 11.4751 174.715 11.7938V39.8614C174.715 40.18 174.6 40.4551 174.371 40.6869C174.141 40.9186 173.868 41.0345 173.552 41.0345H166.748C166.26 41.0345 165.887 40.9331 165.628 40.7303C165.37 40.5276 165.154 40.2958 164.982 40.0351L157.704 28.9558V39.8614C157.704 40.18 157.589 40.4551 157.359 40.6869C157.13 40.9186 156.857 41.0345 156.541 41.0345H148.746ZM180.625 41.0345C180.31 41.0345 180.037 40.9186 179.807 40.6869C179.577 40.4551 179.463 40.18 179.463 39.8614V11.7938C179.463 11.4751 179.577 11.2 179.807 10.9683C180.037 10.7365 180.31 10.6207 180.625 10.6207H188.851C189.167 10.6207 189.44 10.7365 189.669 10.9683C189.899 11.2 190.014 11.4751 190.014 11.7938V20.3965L194.88 11.5765C195.225 10.9393 195.799 10.6207 196.603 10.6207H206.121C206.379 10.6207 206.595 10.722 206.767 10.9248C206.968 11.0986 207.068 11.3158 207.068 11.5765C207.068 11.7503 207.025 11.9096 206.939 12.0545L199.187 25.1758L207.671 39.6007C207.757 39.7165 207.8 39.8758 207.8 40.0786C207.8 40.3393 207.7 40.571 207.499 40.7738C207.327 40.9476 207.111 41.0345 206.853 41.0345H197.034C196.546 41.0345 196.158 40.9331 195.871 40.7303C195.584 40.4986 195.383 40.2669 195.268 40.0351L190.014 30.5634V39.8614C190.014 40.18 189.899 40.4551 189.669 40.6869C189.44 40.9186 189.167 41.0345 188.851 41.0345H180.625Z" fill="white"/>
<path d="M218.879 41.0345C218.592 41.0345 218.334 40.9331 218.104 40.7304C217.903 40.4986 217.802 40.2379 217.802 39.9483V17.4421H210.137C209.85 17.4421 209.591 17.3407 209.361 17.1379C209.16 16.9062 209.06 16.6455 209.06 16.3559V11.7069C209.06 11.3883 209.16 11.1276 209.361 10.9248C209.591 10.7221 209.85 10.6207 210.137 10.6207H233.306C233.622 10.6207 233.881 10.7221 234.082 10.9248C234.283 11.1276 234.383 11.3883 234.383 11.7069V16.3559C234.383 16.6745 234.283 16.9352 234.082 17.1379C233.881 17.3407 233.622 17.4421 233.306 17.4421H225.641V39.9483C225.641 40.2379 225.54 40.4986 225.339 40.7304C225.138 40.9331 224.88 41.0345 224.564 41.0345H218.879ZM244.633 41.469C241.073 41.469 238.331 40.6145 236.407 38.9055C234.483 37.1966 233.435 34.7924 233.263 31.6931C233.234 31.3166 233.22 30.6648 233.22 29.7379C233.22 28.811 233.234 28.1593 233.263 27.7828C233.435 24.7124 234.512 22.3228 236.493 20.6138C238.474 18.8759 241.188 18.0069 244.633 18.0069C248.107 18.0069 250.835 18.8759 252.816 20.6138C254.797 22.3228 255.873 24.7124 256.046 27.7828C256.074 28.1593 256.089 28.811 256.089 29.7379C256.089 30.6648 256.074 31.3166 256.046 31.6931C255.873 34.7924 254.825 37.1966 252.902 38.9055C250.978 40.6145 248.222 41.469 244.633 41.469ZM244.633 36.1683C245.896 36.1683 246.829 35.7917 247.432 35.0386C248.035 34.2566 248.38 33.069 248.466 31.4759C248.495 31.1862 248.509 30.6069 248.509 29.7379C248.509 28.869 248.495 28.2897 248.466 28C248.38 26.4359 248.021 25.2628 247.389 24.4807C246.786 23.6986 245.868 23.3076 244.633 23.3076C242.25 23.3076 240.987 24.8717 240.843 28L240.8 29.7379L240.843 31.4759C240.901 33.069 241.231 34.2566 241.834 35.0386C242.465 35.7917 243.398 36.1683 244.633 36.1683ZM270.961 41.469C267.401 41.469 264.659 40.6145 262.735 38.9055C260.812 37.1966 259.764 34.7924 259.591 31.6931C259.563 31.3166 259.548 30.6648 259.548 29.7379C259.548 28.811 259.563 28.1593 259.591 27.7828C259.764 24.7124 260.84 22.3228 262.821 20.6138C264.803 18.8759 267.516 18.0069 270.961 18.0069C274.435 18.0069 277.163 18.8759 279.144 20.6138C281.125 22.3228 282.201 24.7124 282.374 27.7828C282.402 28.1593 282.417 28.811 282.417 29.7379C282.417 30.6648 282.402 31.3166 282.374 31.6931C282.201 34.7924 281.154 37.1966 279.23 38.9055C277.306 40.6145 274.55 41.469 270.961 41.469ZM270.961 36.1683C272.224 36.1683 273.157 35.7917 273.76 35.0386C274.363 34.2566 274.708 33.069 274.794 31.4759C274.823 31.1862 274.837 30.6069 274.837 29.7379C274.837 28.869 274.823 28.2897 274.794 28C274.708 26.4359 274.349 25.2628 273.717 24.4807C273.114 23.6986 272.196 23.3076 270.961 23.3076C268.578 23.3076 267.315 24.8717 267.171 28L267.128 29.7379L267.171 31.4759C267.229 33.069 267.559 34.2566 268.162 35.0386C268.793 35.7917 269.727 36.1683 270.961 36.1683ZM287.771 41.0345C287.484 41.0345 287.226 40.9331 286.996 40.7304C286.795 40.4986 286.695 40.2379 286.695 39.9483V11.2724C286.695 10.9538 286.795 10.6931 286.996 10.4904C287.226 10.2876 287.484 10.1862 287.771 10.1862H292.853C293.169 10.1862 293.428 10.2876 293.629 10.4904C293.829 10.6931 293.93 10.9538 293.93 11.2724V39.9483C293.93 40.2669 293.829 40.5276 293.629 40.7304C293.428 40.9331 293.169 41.0345 292.853 41.0345H287.771ZM308.233 41.469C305.907 41.469 303.955 41.1359 302.376 40.4697C300.825 39.8035 299.677 39.0069 298.931 38.08C298.184 37.1531 297.811 36.3276 297.811 35.6035C297.811 35.3138 297.911 35.0821 298.112 34.9083C298.342 34.7055 298.586 34.6042 298.844 34.6042H303.754C303.926 34.6042 304.084 34.6766 304.228 34.8214C304.572 35.0531 304.831 35.2414 305.003 35.3862C305.635 35.8497 306.18 36.1973 306.639 36.429C307.128 36.6317 307.716 36.7331 308.405 36.7331C309.238 36.7331 309.912 36.5738 310.429 36.2552C310.975 35.9076 311.248 35.4297 311.248 34.8214C311.248 34.329 311.104 33.9379 310.817 33.6483C310.559 33.3586 310.042 33.0835 309.266 32.8228C308.491 32.5331 307.314 32.229 305.735 31.9104C303.352 31.4179 301.515 30.6214 300.223 29.5207C298.959 28.391 298.328 26.8848 298.328 25.0021C298.328 23.8145 298.701 22.6848 299.447 21.6131C300.194 20.5414 301.299 19.6724 302.763 19.0062C304.256 18.34 306.022 18.0069 308.061 18.0069C310.099 18.0069 311.879 18.3255 313.401 18.9628C314.923 19.6 316.071 20.3821 316.846 21.309C317.65 22.2069 318.052 23.0324 318.052 23.7855C318.052 24.0462 317.952 24.2779 317.751 24.4807C317.578 24.6835 317.363 24.7848 317.105 24.7848H312.626C312.396 24.7848 312.181 24.7124 311.98 24.5676C311.606 24.3648 311.276 24.1476 310.989 23.9159C310.501 23.5393 310.042 23.2497 309.611 23.0469C309.18 22.8442 308.649 22.7428 308.018 22.7428C307.271 22.7428 306.668 22.9166 306.209 23.2641C305.778 23.6117 305.563 24.0607 305.563 24.611C305.563 25.0455 305.678 25.4076 305.907 25.6973C306.166 25.9869 306.682 26.2766 307.458 26.5662C308.262 26.8269 309.439 27.1021 310.989 27.3917C313.774 27.8841 315.798 28.7531 317.062 29.9986C318.354 31.2442 319 32.7069 319 34.3869C319 36.5304 318.052 38.2538 316.157 39.5573C314.262 40.8317 311.621 41.469 308.233 41.469Z" fill="white"/>
</g>
<defs>
<clipPath id="clip0">
<rect width="323" height="70" fill="white"/>
</clipPath>
</defs>
</svg>
