<svg width="181" height="39" viewBox="0 0 181 39" fill="none" xmlns="http://www.w3.org/2000/svg">
<g clip-path="url(#clip0_21:96)">
<path d="M38.0555 30.1383L29.1633 21.2194C27.4092 19.4601 24.7894 19.1173 22.6784 20.1607L14.5835 12.0416V7.31179L4.86371 0L0.00379747 4.87453L7.29367 14.6235H12.0093L20.1041 22.7426C19.0714 24.8601 19.4055 27.4877 21.1596 29.2472L30.0518 38.1659C31.1604 39.278 32.9525 39.278 34.0536 38.1659L38.0555 34.1522C39.1565 33.0401 39.1565 31.2426 38.0555 30.1383ZM25.1918 17.137C27.3408 17.137 29.3608 17.9748 30.8794 19.4981L32.3526 20.9757C33.5524 20.4501 34.6914 19.7189 35.6786 18.7289C38.4959 15.9031 39.4526 11.9274 38.5566 8.31715C38.3896 7.63168 37.5315 7.39557 37.0303 7.89825L31.3806 13.5649L26.2245 12.7042L25.3664 7.53266L31.0162 1.86603C31.5173 1.36335 31.2743 0.502686 30.5832 0.327507C26.9839 -0.563617 23.02 0.396055 20.2105 3.21414C18.0462 5.38482 17.0287 8.24861 17.0818 11.1048L23.3162 17.3578C23.9313 17.2131 24.5692 17.137 25.1918 17.137ZM17.302 23.3825L12.9965 19.064L1.4238 30.679C-0.4746 32.5832 -0.4746 35.6678 1.4238 37.5719C3.32221 39.4761 6.39763 39.4761 8.29602 37.5719L17.6817 28.158C17.1046 26.6424 16.9299 24.9896 17.302 23.3825ZM4.86371 35.9497C3.86136 35.9497 3.04124 35.127 3.04124 34.1216C3.04124 33.1087 3.85376 32.2938 4.86371 32.2938C5.87367 32.2938 6.68618 33.1087 6.68618 34.1216C6.68618 35.127 5.87367 35.9497 4.86371 35.9497Z" fill="#363636"/>
<path d="M46.4701 37.6552C46.4164 37.6552 46.3708 37.639 46.3333 37.6067C46.3011 37.5691 46.285 37.5234 46.285 37.4696V32.1925C46.285 32.1387 46.3011 32.0956 46.3333 32.0633C46.3708 32.0257 46.4164 32.0069 46.4701 32.0069H46.8964C46.95 32.0069 46.9929 32.0257 47.0251 32.0633C47.0627 32.0956 47.0814 32.1387 47.0814 32.1925V36.9532H49.7522C49.8112 36.9532 49.8568 36.972 49.8889 37.0096C49.9265 37.0419 49.9453 37.0876 49.9453 37.1468V37.4696C49.9453 37.5234 49.9265 37.5691 49.8889 37.6067C49.8514 37.639 49.8058 37.6552 49.7522 37.6552H46.4701ZM58.9608 37.7358C58.2583 37.7358 57.7139 37.5529 57.3278 37.1872C56.947 36.816 56.7459 36.2592 56.7244 35.5169C56.7191 35.3555 56.7164 35.1269 56.7164 34.831C56.7164 34.5351 56.7191 34.3092 56.7244 34.1532C56.7459 33.427 56.9551 32.8756 57.3519 32.4991C57.7488 32.1171 58.2851 31.9262 58.9608 31.9262C59.6312 31.9262 60.1648 32.1171 60.5616 32.4991C60.9585 32.8756 61.1677 33.427 61.1891 34.1532C61.1998 34.4652 61.2052 34.6911 61.2052 34.831C61.2052 34.9655 61.1998 35.1941 61.1891 35.5169C61.1677 36.2592 60.9639 36.816 60.5777 37.1872C60.197 37.5529 59.658 37.7358 58.9608 37.7358ZM58.9608 37.05C59.3845 37.05 59.7223 36.9209 59.9744 36.6627C60.2265 36.4045 60.3632 36.0091 60.3847 35.4765C60.3954 35.1538 60.4008 34.9386 60.4008 34.831C60.4008 34.7127 60.3954 34.4975 60.3847 34.1855C60.3632 33.6529 60.2238 33.2576 59.9664 32.9994C59.7143 32.7411 59.3791 32.612 58.9608 32.612C58.5371 32.612 58.1966 32.7411 57.9392 32.9994C57.6871 33.2576 57.5503 33.6529 57.5289 34.1855C57.5235 34.3415 57.5208 34.5567 57.5208 34.831C57.5208 35.1 57.5235 35.3151 57.5289 35.4765C57.5503 36.0091 57.6871 36.4045 57.9392 36.6627C58.1966 36.9209 58.5371 37.05 58.9608 37.05ZM70.5991 37.7358C69.8805 37.7358 69.3334 37.5422 68.958 37.1549C68.588 36.7676 68.3896 36.2323 68.3627 35.5491C68.3574 35.4039 68.3547 35.1672 68.3547 34.8391C68.3547 34.5056 68.3574 34.2635 68.3627 34.1129C68.3896 33.4351 68.5907 32.9025 68.9661 32.5152C69.3415 32.1225 69.8858 31.9262 70.5991 31.9262C71.0764 31.9262 71.4813 32.0122 71.8138 32.1844C72.1463 32.3511 72.3984 32.5717 72.57 32.846C72.7416 33.1204 72.8355 33.4136 72.8515 33.7256V33.7417C72.8515 33.7847 72.8328 33.8224 72.7952 33.8547C72.7631 33.8816 72.7255 33.895 72.6826 33.895H72.2402C72.1329 33.895 72.0659 33.8331 72.0391 33.7094C71.9479 33.306 71.7843 33.0236 71.5483 32.8622C71.3124 32.6954 70.996 32.612 70.5991 32.612C69.6767 32.612 69.1994 33.1258 69.1672 34.1532C69.1618 34.2985 69.1592 34.5217 69.1592 34.8229C69.1592 35.1242 69.1618 35.3528 69.1672 35.5088C69.1994 36.5363 69.6767 37.05 70.5991 37.05C70.996 37.05 71.3124 36.9693 71.5483 36.8079C71.7897 36.6412 71.9533 36.356 72.0391 35.9526C72.0551 35.8827 72.0793 35.8343 72.1115 35.8074C72.1436 35.7805 72.1865 35.767 72.2402 35.767H72.6826C72.7309 35.767 72.7711 35.7831 72.8033 35.8154C72.8408 35.8423 72.8569 35.88 72.8515 35.9284C72.8355 36.2458 72.7416 36.5416 72.57 36.816C72.3984 37.0903 72.1463 37.3136 71.8138 37.4857C71.4813 37.6525 71.0764 37.7358 70.5991 37.7358ZM79.6908 37.6552C79.6479 37.6552 79.6104 37.639 79.5782 37.6067C79.546 37.5745 79.5299 37.5368 79.5299 37.4938C79.5299 37.4507 79.5326 37.4212 79.538 37.405L81.533 32.1844C81.5759 32.066 81.6617 32.0069 81.7904 32.0069H82.3374C82.4661 32.0069 82.5519 32.066 82.5948 32.1844L84.5818 37.405L84.5979 37.4938C84.5979 37.5368 84.5818 37.5745 84.5496 37.6067C84.5175 37.639 84.4799 37.6552 84.437 37.6552H84.0268C83.9678 37.6552 83.9222 37.6417 83.89 37.6148C83.8578 37.5825 83.8364 37.5503 83.8256 37.518L83.3832 36.3722H80.7446L80.3022 37.518C80.2915 37.5503 80.2673 37.5825 80.2298 37.6148C80.1976 37.6417 80.1547 37.6552 80.1011 37.6552H79.6908ZM83.1499 35.6783L82.0639 32.8138L80.9779 35.6783H83.1499ZM92.471 37.6552C92.4174 37.6552 92.3718 37.639 92.3343 37.6067C92.3021 37.5691 92.286 37.5234 92.286 37.4696V32.725H90.7415C90.6878 32.725 90.6422 32.7089 90.6047 32.6766C90.5725 32.6389 90.5564 32.5932 90.5564 32.5394V32.2005C90.5564 32.1467 90.5725 32.101 90.6047 32.0633C90.6422 32.0257 90.6878 32.0069 90.7415 32.0069H94.6189C94.6779 32.0069 94.7235 32.0257 94.7556 32.0633C94.7932 32.0956 94.812 32.1414 94.812 32.2005V32.5394C94.812 32.5932 94.7932 32.6389 94.7556 32.6766C94.7181 32.7089 94.6725 32.725 94.6189 32.725H93.0824V37.4696C93.0824 37.5234 93.0636 37.5691 93.0261 37.6067C92.9885 37.639 92.9429 37.6552 92.8893 37.6552H92.471ZM102.093 37.6552C102.039 37.6552 101.994 37.639 101.956 37.6067C101.924 37.5691 101.908 37.5234 101.908 37.4696V32.1925C101.908 32.1387 101.924 32.0956 101.956 32.0633C101.994 32.0257 102.039 32.0069 102.093 32.0069H102.519C102.573 32.0069 102.616 32.0257 102.648 32.0633C102.686 32.0956 102.704 32.1387 102.704 32.1925V37.4696C102.704 37.5234 102.686 37.5691 102.648 37.6067C102.616 37.639 102.573 37.6552 102.519 37.6552H102.093ZM112.329 37.7358C111.626 37.7358 111.082 37.5529 110.696 37.1872C110.315 36.816 110.114 36.2592 110.093 35.5169C110.087 35.3555 110.085 35.1269 110.085 34.831C110.085 34.5351 110.087 34.3092 110.093 34.1532C110.114 33.427 110.323 32.8756 110.72 32.4991C111.117 32.1171 111.653 31.9262 112.329 31.9262C112.999 31.9262 113.533 32.1171 113.93 32.4991C114.327 32.8756 114.536 33.427 114.557 34.1532C114.568 34.4652 114.573 34.6911 114.573 34.831C114.573 34.9655 114.568 35.1941 114.557 35.5169C114.536 36.2592 114.332 36.816 113.946 37.1872C113.565 37.5529 113.026 37.7358 112.329 37.7358ZM112.329 37.05C112.753 37.05 113.091 36.9209 113.343 36.6627C113.595 36.4045 113.731 36.0091 113.753 35.4765C113.764 35.1538 113.769 34.9386 113.769 34.831C113.769 34.7127 113.764 34.4975 113.753 34.1855C113.731 33.6529 113.592 33.2576 113.335 32.9994C113.082 32.7411 112.747 32.612 112.329 32.612C111.905 32.612 111.565 32.7411 111.307 32.9994C111.055 33.2576 110.919 33.6529 110.897 34.1855C110.892 34.3415 110.889 34.5567 110.889 34.831C110.889 35.1 110.892 35.3151 110.897 35.4765C110.919 36.0091 111.055 36.4045 111.307 36.6627C111.565 36.9209 111.905 37.05 112.329 37.05ZM122.125 37.6552C122.072 37.6552 122.026 37.639 121.988 37.6067C121.956 37.5691 121.94 37.5234 121.94 37.4696V32.2005C121.94 32.1414 121.956 32.0956 121.988 32.0633C122.026 32.0257 122.072 32.0069 122.125 32.0069H122.495C122.592 32.0069 122.659 32.0445 122.696 32.1198L125.367 36.235V32.2005C125.367 32.1414 125.383 32.0956 125.415 32.0633C125.453 32.0257 125.499 32.0069 125.552 32.0069H125.938C125.997 32.0069 126.043 32.0257 126.075 32.0633C126.113 32.0956 126.131 32.1414 126.131 32.2005V37.4615C126.131 37.5153 126.113 37.561 126.075 37.5987C126.043 37.6363 126 37.6552 125.946 37.6552H125.56C125.48 37.6552 125.415 37.6175 125.367 37.5422L122.704 33.4674V37.4696C122.704 37.5234 122.686 37.5691 122.648 37.6067C122.611 37.639 122.565 37.6552 122.511 37.6552H122.125ZM142.078 37.6552C142.025 37.6552 141.979 37.639 141.942 37.6067C141.909 37.5691 141.893 37.5234 141.893 37.4696V32.2005C141.893 32.1414 141.909 32.0956 141.942 32.0633C141.979 32.0257 142.025 32.0069 142.078 32.0069H144.122C144.728 32.0069 145.205 32.1548 145.553 32.4507C145.902 32.7465 146.076 33.1742 146.076 33.7336C146.076 34.2931 145.902 34.7207 145.553 35.0166C145.21 35.3071 144.733 35.4523 144.122 35.4523H142.698V37.4696C142.698 37.5234 142.679 37.5691 142.641 37.6067C142.604 37.639 142.558 37.6552 142.505 37.6552H142.078ZM144.081 34.7745C144.473 34.7745 144.768 34.6858 144.966 34.5083C145.17 34.3307 145.272 34.0725 145.272 33.7336C145.272 33.3947 145.173 33.1365 144.974 32.959C144.776 32.7761 144.478 32.6847 144.081 32.6847H142.69V34.7745H144.081ZM152.549 37.6552C152.507 37.6552 152.469 37.639 152.437 37.6067C152.405 37.5745 152.389 37.5368 152.389 37.4938C152.389 37.4507 152.391 37.4212 152.397 37.405L154.392 32.1844C154.435 32.066 154.52 32.0069 154.649 32.0069H155.196C155.325 32.0069 155.411 32.066 155.454 32.1844L157.441 37.405L157.457 37.4938C157.457 37.5368 157.441 37.5745 157.408 37.6067C157.376 37.639 157.339 37.6552 157.296 37.6552H156.885C156.826 37.6552 156.781 37.6417 156.749 37.6148C156.716 37.5825 156.695 37.5503 156.684 37.518L156.242 36.3722H153.603L153.161 37.518C153.15 37.5503 153.126 37.5825 153.088 37.6148C153.056 37.6417 153.013 37.6552 152.96 37.6552H152.549ZM156.009 35.6783L154.923 32.8138L153.837 35.6783H156.009ZM166.46 37.7358C165.757 37.7358 165.21 37.5449 164.819 37.1629C164.432 36.7756 164.226 36.2485 164.199 35.5814C164.194 35.42 164.191 35.1672 164.191 34.8229C164.191 34.4733 164.194 34.2205 164.199 34.0645C164.226 33.4028 164.435 32.881 164.827 32.4991C165.218 32.1171 165.762 31.9262 166.46 31.9262C166.932 31.9262 167.331 32.0122 167.658 32.1844C167.991 32.3511 168.24 32.5556 168.406 32.7976C168.573 33.0397 168.661 33.2656 168.672 33.4754V33.4916C168.672 33.5346 168.656 33.5696 168.624 33.5965C168.591 33.6234 168.551 33.6368 168.503 33.6368H168.028C167.975 33.6368 167.934 33.6287 167.908 33.6126C167.886 33.5911 167.865 33.5507 167.843 33.4916C167.763 33.2495 167.607 33.0424 167.377 32.8702C167.151 32.6981 166.846 32.612 166.46 32.612C166.015 32.612 165.666 32.7331 165.414 32.9751C165.162 33.2172 165.025 33.5938 165.004 34.1048C164.998 34.2608 164.996 34.5002 164.996 34.8229C164.996 35.1403 164.998 35.3797 165.004 35.5411C165.025 36.0575 165.162 36.4394 165.414 36.6869C165.666 36.9289 166.015 37.05 166.46 37.05C166.91 37.05 167.269 36.9263 167.538 36.6788C167.806 36.4314 167.94 36.0602 167.94 35.5653V35.2264H166.733C166.68 35.2264 166.634 35.2103 166.596 35.178C166.564 35.1403 166.548 35.0919 166.548 35.0327V34.7745C166.548 34.7207 166.564 34.675 166.596 34.6374C166.634 34.5997 166.68 34.5809 166.733 34.5809H168.551C168.605 34.5809 168.648 34.5997 168.68 34.6374C168.717 34.6696 168.736 34.7154 168.736 34.7745V35.5491C168.736 35.9903 168.645 36.3749 168.463 36.703C168.28 37.0312 168.018 37.2867 167.674 37.4696C167.331 37.6471 166.926 37.7358 166.46 37.7358ZM176.263 37.6552C176.21 37.6552 176.164 37.639 176.126 37.6067C176.094 37.5691 176.078 37.5234 176.078 37.4696V32.2005C176.078 32.1414 176.094 32.0956 176.126 32.0633C176.164 32.0257 176.21 32.0069 176.263 32.0069H179.586C179.639 32.0069 179.682 32.0257 179.714 32.0633C179.752 32.0956 179.771 32.1414 179.771 32.2005V32.5071C179.771 32.5609 179.754 32.6067 179.722 32.6443C179.69 32.6766 179.645 32.6927 179.586 32.6927H176.85V34.4598H179.409C179.462 34.4598 179.505 34.4787 179.537 34.5163C179.575 34.5486 179.594 34.5943 179.594 34.6535V34.952C179.594 35.0058 179.575 35.0516 179.537 35.0892C179.505 35.1215 179.462 35.1376 179.409 35.1376H176.85V36.9693H179.65C179.709 36.9693 179.754 36.9854 179.787 37.0177C179.819 37.05 179.835 37.0957 179.835 37.1549V37.4696C179.835 37.5234 179.816 37.5691 179.779 37.6067C179.746 37.639 179.703 37.6552 179.65 37.6552H176.263Z" fill="#363636"/>
<path d="M47.7186 22.8621C47.5416 22.8621 47.3888 22.7975 47.2601 22.6684C47.1314 22.5393 47.067 22.386 47.067 22.2085V6.57082C47.067 6.39331 47.1314 6.23999 47.2601 6.11089C47.3888 5.98179 47.5416 5.91724 47.7186 5.91724H54.8621C57.1789 5.91724 58.9889 6.44172 60.2921 7.49068C61.5953 8.52351 62.2469 9.95979 62.2469 11.7995C62.2469 12.8485 62.0136 13.7764 61.547 14.5833C61.0804 15.3741 60.4449 16.0276 59.6405 16.5441L62.6089 22.0632C62.6571 22.1601 62.6813 22.2488 62.6813 22.3295C62.6813 22.4748 62.625 22.6039 62.5123 22.7168C62.4158 22.8136 62.2951 22.8621 62.1503 22.8621H57.203C56.9134 22.8621 56.6801 22.7975 56.5031 22.6684C56.3423 22.5232 56.2296 22.3699 56.1653 22.2085L54.0898 17.585H53.1003V22.2085C53.1003 22.386 53.036 22.5393 52.9073 22.6684C52.7786 22.7975 52.6257 22.8621 52.4487 22.8621H47.7186ZM54.8621 12.9856C55.216 12.9856 55.4895 12.8727 55.6826 12.6468C55.8757 12.4047 55.9722 12.1061 55.9722 11.7511C55.9722 11.3961 55.8757 11.0894 55.6826 10.8312C55.5056 10.5569 55.2321 10.4197 54.8621 10.4197H53.1003V12.9856H54.8621ZM63.6872 22.8621C63.5424 22.8621 63.4137 22.8136 63.3011 22.7168C63.2046 22.6039 63.1563 22.4748 63.1563 22.3295C63.1563 22.265 63.1643 22.2085 63.1804 22.1601L68.5622 6.71606C68.6265 6.50627 68.7472 6.32068 68.9242 6.15931C69.1011 5.99793 69.3425 5.91724 69.6482 5.91724H74.8851C75.1908 5.91724 75.4321 5.99793 75.6091 6.15931C75.7861 6.32068 75.9067 6.50627 75.9711 6.71606L81.3528 22.1601C81.3689 22.2085 81.377 22.265 81.377 22.3295C81.377 22.4748 81.3207 22.6039 81.208 22.7168C81.1115 22.8136 80.9908 22.8621 80.846 22.8621H76.3814C75.8987 22.8621 75.585 22.6603 75.4402 22.2569L74.861 20.6592H69.6723L69.0931 22.2569C68.9483 22.6603 68.6346 22.8621 68.1519 22.8621H63.6872ZM73.6302 15.9389L72.2546 11.4364L70.9031 15.9389H73.6302ZM83.3531 22.8621C83.1761 22.8621 83.0233 22.7975 82.8946 22.6684C82.7658 22.5393 82.7015 22.386 82.7015 22.2085V6.57082C82.7015 6.39331 82.7658 6.23999 82.8946 6.11089C83.0233 5.98179 83.1761 5.91724 83.3531 5.91724H87.1661C87.6166 5.91724 87.9465 6.10282 88.1556 6.47399L92.2342 13.1793V6.57082C92.2342 6.39331 92.2985 6.23999 92.4272 6.11089C92.5559 5.98179 92.7088 5.91724 92.8858 5.91724H97.2539C97.4309 5.91724 97.5837 5.98179 97.7124 6.11089C97.8411 6.23999 97.9055 6.39331 97.9055 6.57082V22.2085C97.9055 22.386 97.8411 22.5393 97.7124 22.6684C97.5837 22.7975 97.4309 22.8621 97.2539 22.8621H93.4408C93.1673 22.8621 92.9582 22.8056 92.8134 22.6926C92.6686 22.5796 92.5479 22.4505 92.4513 22.3053L88.3728 16.1325V22.2085C88.3728 22.386 88.3085 22.5393 88.1798 22.6684C88.051 22.7975 87.8982 22.8621 87.7212 22.8621H83.3531ZM101.217 22.8621C101.04 22.8621 100.888 22.7975 100.759 22.6684C100.63 22.5393 100.566 22.386 100.566 22.2085V6.57082C100.566 6.39331 100.63 6.23999 100.759 6.11089C100.888 5.98179 101.04 5.91724 101.217 5.91724H105.827C106.004 5.91724 106.157 5.98179 106.285 6.11089C106.414 6.23999 106.478 6.39331 106.478 6.57082V11.3638L109.206 6.44979C109.399 6.09475 109.72 5.91724 110.171 5.91724H115.504C115.649 5.91724 115.77 5.97372 115.866 6.08668C115.979 6.18351 116.035 6.30455 116.035 6.44979C116.035 6.54662 116.011 6.63537 115.963 6.71606L111.619 14.0265L116.373 22.0632C116.421 22.1278 116.446 22.2165 116.446 22.3295C116.446 22.4748 116.389 22.6039 116.277 22.7168C116.18 22.8136 116.059 22.8621 115.915 22.8621H110.412C110.139 22.8621 109.921 22.8056 109.761 22.6926C109.6 22.5635 109.487 22.4344 109.423 22.3053L106.478 17.0282V22.2085C106.478 22.386 106.414 22.5393 106.285 22.6684C106.157 22.7975 106.004 22.8621 105.827 22.8621H101.217Z" fill="#363636"/>
<path d="M122.654 22.8621C122.493 22.8621 122.348 22.8056 122.219 22.6926C122.107 22.5635 122.05 22.4183 122.05 22.2569V9.71772H117.755C117.594 9.71772 117.449 9.66124 117.32 9.54827C117.208 9.41917 117.151 9.27393 117.151 9.11255V6.52241C117.151 6.3449 117.208 6.19965 117.32 6.08669C117.449 5.97372 117.594 5.91724 117.755 5.91724H130.738C130.915 5.91724 131.06 5.97372 131.173 6.08669C131.285 6.19965 131.342 6.3449 131.342 6.52241V9.11255C131.342 9.29007 131.285 9.43531 131.173 9.54827C131.06 9.66124 130.915 9.71772 130.738 9.71772H126.443V22.2569C126.443 22.4183 126.386 22.5635 126.274 22.6926C126.161 22.8056 126.016 22.8621 125.839 22.8621H122.654ZM137.085 23.1041C135.09 23.1041 133.554 22.6281 132.476 21.6759C131.398 20.7238 130.811 19.3843 130.714 17.6576C130.698 17.4478 130.69 17.0847 130.69 16.5683C130.69 16.0519 130.698 15.6888 130.714 15.479C130.811 13.7683 131.414 12.437 132.524 11.4848C133.634 10.5166 135.155 10.0324 137.085 10.0324C139.032 10.0324 140.561 10.5166 141.671 11.4848C142.781 12.437 143.384 13.7683 143.481 15.479C143.497 15.6888 143.505 16.0519 143.505 16.5683C143.505 17.0847 143.497 17.4478 143.481 17.6576C143.384 19.3843 142.797 20.7238 141.719 21.6759C140.641 22.6281 139.096 23.1041 137.085 23.1041ZM137.085 20.1509C137.793 20.1509 138.316 19.9411 138.654 19.5215C138.992 19.0858 139.185 18.4241 139.233 17.5365C139.249 17.3752 139.257 17.0524 139.257 16.5683C139.257 16.0841 139.249 15.7614 139.233 15.6C139.185 14.7285 138.984 14.075 138.63 13.6392C138.292 13.2035 137.777 12.9857 137.085 12.9857C135.75 12.9857 135.042 13.8571 134.962 15.6L134.938 16.5683L134.962 17.5365C134.994 18.4241 135.179 19.0858 135.517 19.5215C135.871 19.9411 136.394 20.1509 137.085 20.1509ZM151.839 23.1041C149.844 23.1041 148.307 22.6281 147.229 21.6759C146.151 20.7238 145.564 19.3843 145.468 17.6576C145.452 17.4478 145.444 17.0847 145.444 16.5683C145.444 16.0519 145.452 15.6888 145.468 15.479C145.564 13.7683 146.168 12.437 147.278 11.4848C148.388 10.5166 149.908 10.0324 151.839 10.0324C153.786 10.0324 155.314 10.5166 156.424 11.4848C157.534 12.437 158.138 13.7683 158.234 15.479C158.25 15.6888 158.258 16.0519 158.258 16.5683C158.258 17.0847 158.25 17.4478 158.234 17.6576C158.138 19.3843 157.55 20.7238 156.472 21.6759C155.395 22.6281 153.85 23.1041 151.839 23.1041ZM151.839 20.1509C152.547 20.1509 153.07 19.9411 153.408 19.5215C153.745 19.0858 153.938 18.4241 153.987 17.5365C154.003 17.3752 154.011 17.0524 154.011 16.5683C154.011 16.0841 154.003 15.7614 153.987 15.6C153.938 14.7285 153.737 14.075 153.383 13.6392C153.046 13.2035 152.531 12.9857 151.839 12.9857C150.504 12.9857 149.796 13.8571 149.715 15.6L149.691 16.5683L149.715 17.5365C149.747 18.4241 149.932 19.0858 150.27 19.5215C150.624 19.9411 151.147 20.1509 151.839 20.1509ZM161.259 22.8621C161.098 22.8621 160.953 22.8056 160.825 22.6926C160.712 22.5635 160.656 22.4183 160.656 22.2569V6.28034C160.656 6.10283 160.712 5.95759 160.825 5.84462C160.953 5.73165 161.098 5.67517 161.259 5.67517H164.107C164.284 5.67517 164.428 5.73165 164.541 5.84462C164.654 5.95759 164.71 6.10283 164.71 6.28034V22.2569C164.71 22.4344 164.654 22.5797 164.541 22.6926C164.428 22.8056 164.284 22.8621 164.107 22.8621H161.259ZM172.725 23.1041C171.422 23.1041 170.328 22.9186 169.443 22.5474C168.574 22.1762 167.93 21.7324 167.512 21.216C167.094 20.6996 166.885 20.2397 166.885 19.8362C166.885 19.6748 166.941 19.5457 167.054 19.4489C167.182 19.3359 167.319 19.2794 167.464 19.2794H170.215C170.312 19.2794 170.4 19.3198 170.481 19.4005C170.674 19.5296 170.818 19.6345 170.915 19.7152C171.269 19.9734 171.575 20.167 171.832 20.2961C172.106 20.4091 172.435 20.4656 172.821 20.4656C173.288 20.4656 173.666 20.3768 173.956 20.1993C174.261 20.0057 174.414 19.7394 174.414 19.4005C174.414 19.1261 174.334 18.9083 174.173 18.7469C174.028 18.5855 173.739 18.4322 173.304 18.287C172.87 18.1256 172.21 17.9561 171.325 17.7786C169.99 17.5043 168.96 17.0605 168.236 16.4472C167.528 15.8179 167.174 14.9787 167.174 13.9297C167.174 13.2681 167.383 12.6387 167.802 12.0416C168.22 11.4445 168.839 10.9603 169.66 10.5892C170.497 10.218 171.486 10.0324 172.628 10.0324C173.771 10.0324 174.768 10.2099 175.621 10.565C176.474 10.92 177.117 11.3557 177.552 11.8721C178.002 12.3724 178.227 12.8323 178.227 13.2519C178.227 13.3972 178.171 13.5263 178.058 13.6392C177.962 13.7522 177.841 13.8087 177.696 13.8087H175.187C175.058 13.8087 174.937 13.7683 174.825 13.6877C174.615 13.5747 174.43 13.4537 174.269 13.3246C173.996 13.1148 173.739 12.9534 173.497 12.8404C173.256 12.7274 172.958 12.671 172.604 12.671C172.186 12.671 171.848 12.7678 171.591 12.9614C171.349 13.1551 171.229 13.4052 171.229 13.7119C171.229 13.9539 171.293 14.1557 171.422 14.317C171.567 14.4784 171.856 14.6398 172.291 14.8012C172.741 14.9464 173.401 15.0997 174.269 15.2611C175.83 15.5354 176.964 16.0196 177.672 16.7135C178.396 17.4074 178.758 18.2224 178.758 19.1584C178.758 20.3526 178.227 21.3128 177.165 22.039C176.104 22.7491 174.623 23.1041 172.725 23.1041Z" fill="#363636"/>
</g>
<defs>
<clipPath id="clip0_21:96">
<rect width="181" height="39" fill="white"/>
</clipPath>
</defs>
</svg>
